# Blender v3.4.1 OBJ File: 'Tablet-lowpoly.blend'
# www.blender.org
mtllib Tablet-lowpoly.mtl
o Cube_Cube.001
v 0.031646 1.864700 1.526254
v 0.031646 1.889840 1.519279
v 0.031646 1.911153 1.499416
v 0.031646 1.930394 1.434622
v 0.031646 1.925393 1.469688
v 0.031646 0.082325 1.526254
v 0.031646 0.057185 1.519279
v 0.031646 0.035873 1.499416
v 0.031646 0.021632 1.469688
v 0.031646 0.016632 1.434622
v 0.031646 1.864700 -1.405983
v 0.031646 1.889840 -1.399008
v 0.031646 1.911153 -1.379145
v 0.031646 1.925393 -1.349417
v 0.031646 1.930394 -1.314351
v 0.031646 0.082325 -1.405983
v 0.031646 0.057185 -1.399008
v 0.031646 0.035873 -1.379145
v 0.031646 0.016632 -1.314351
v 0.031646 0.021632 -1.349417
v -0.050636 0.012575 1.438521
v -0.050636 0.078547 1.530413
v -0.050636 0.017597 1.473686
v -0.050636 0.031898 1.503498
v -0.050636 0.053301 1.523418
v -0.050636 1.868478 1.530413
v -0.050636 1.934450 1.438521
v -0.050636 1.893725 1.523418
v -0.050636 1.915128 1.503498
v -0.050636 1.929428 1.473686
v -0.050636 0.078547 -1.410142
v -0.050636 0.012575 -1.318250
v -0.050636 0.053301 -1.403147
v -0.050636 0.031898 -1.383227
v -0.050636 0.017597 -1.353415
v -0.050636 1.934450 -1.318250
v -0.050636 1.868478 -1.410142
v -0.050636 1.929428 -1.353415
v -0.050636 1.915128 -1.383227
v -0.050636 1.893725 -1.403147
v 0.026558 0.073078 1.536959
v 0.026558 0.006703 1.444657
v 0.026558 0.047678 1.529933
v 0.026558 0.026144 1.509924
v 0.026558 0.011756 1.479979
v 0.026558 1.940322 1.444657
v 0.026558 1.873947 1.536959
v 0.026558 1.935269 1.479979
v 0.026558 1.920881 1.509924
v 0.026558 1.899348 1.529933
v 0.026558 0.006703 -1.324387
v 0.026558 0.073078 -1.416688
v 0.026558 0.011756 -1.359709
v 0.026558 0.026144 -1.389654
v 0.026558 0.047678 -1.409662
v 0.026558 1.873947 -1.416688
v 0.026558 1.940322 -1.324387
v 0.026558 1.899348 -1.409662
v 0.026558 1.920881 -1.389654
v 0.026558 1.935269 -1.359709
v 0.031646 0.119783 -1.266106
v 0.031646 0.119783 1.386377
v 0.031646 1.797532 -1.309444
v 0.031646 0.149494 -1.309444
v 0.031646 1.827243 1.386377
v 0.031646 1.827243 -1.266106
v 0.031646 0.149494 1.429715
v 0.031646 1.797532 1.429715
v 0.031646 1.808902 1.426416
v 0.031646 1.818540 1.417021
v 0.031646 1.824981 1.402962
v 0.031646 0.138124 1.426416
v 0.031646 0.128485 1.417021
v 0.031646 0.122044 1.402962
v 0.031646 1.808902 -1.306145
v 0.031646 1.818540 -1.296751
v 0.031646 0.138124 -1.306145
v 0.031646 0.128485 -1.296751
v 0.031646 0.122044 -1.282691
v 0.031646 1.824981 -1.282691
v -0.009495 0.000132 -1.333798
v -0.009495 0.005218 -1.369360
v -0.009495 0.019704 -1.399508
v -0.009495 0.041384 -1.419653
v -0.009495 0.079079 -1.426727
v -0.009495 1.946894 -1.333798
v -0.009495 1.941807 -1.369360
v -0.009495 1.927321 -1.399508
v -0.009495 1.905641 -1.419653
v -0.009495 1.880068 -1.426727
v -0.009495 0.000132 1.454068
v -0.009495 0.005218 1.489631
v -0.009495 0.019704 1.519779
v -0.009495 0.041384 1.539924
v -0.009495 0.066958 1.546997
v -0.009495 1.946894 1.454068
v -0.009495 1.941807 1.489631
v -0.009495 1.927321 1.519779
v -0.009495 1.905641 1.539924
v -0.009495 1.880068 1.546997
v 0.011076 0.005218 -1.369360
v 0.011076 0.019704 -1.399508
v 0.011076 0.041384 -1.419653
v 0.011076 0.094816 -1.426727
v 0.011076 1.946894 -1.333798
v 0.011076 0.000132 1.454068
v 0.011076 1.941807 1.489631
v 0.011076 1.927321 1.519779
v 0.011076 1.905641 1.539924
v 0.011076 1.880068 1.546997
v 0.011076 0.000132 -1.333798
v 0.011076 1.941807 -1.369360
v 0.011076 1.927321 -1.399508
v 0.011076 1.905641 -1.419653
v 0.011076 1.880068 -1.426727
v 0.011076 0.005218 1.489631
v 0.011076 0.019704 1.519779
v 0.011076 0.041384 1.539924
v 0.011076 0.066958 1.546997
v 0.011076 1.946894 1.454068
v 0.021361 0.005218 -1.369360
v 0.021361 0.019704 -1.399508
v 0.021361 0.041384 -1.419653
v 0.021361 0.066958 -1.426727
v 0.021361 1.946894 -1.333798
v 0.021361 0.000132 1.454068
v 0.021361 1.941807 1.489631
v 0.021361 1.927321 1.519779
v 0.021361 1.905641 1.539924
v 0.021361 1.880068 1.546997
v 0.021361 0.000132 -1.333798
v 0.021361 1.941807 -1.369360
v 0.021361 1.927321 -1.399508
v 0.021361 1.905641 -1.419653
v 0.021361 1.880068 -1.426727
v 0.021361 0.005218 1.489631
v 0.021361 0.019704 1.519779
v 0.021361 0.041384 1.539924
v 0.021361 0.066958 1.546997
v 0.021361 1.946894 1.454068
v -0.032610 0.000132 -1.333798
v -0.032610 1.941807 -1.369360
v -0.032610 1.927321 -1.399508
v -0.032610 1.905641 -1.419653
v -0.032610 1.880068 -1.426727
v -0.032610 0.005218 1.489631
v -0.032610 0.019704 1.519779
v -0.032610 0.041384 1.539924
v -0.032610 0.066958 1.546997
v -0.032610 1.946894 1.454068
v -0.032610 0.005218 -1.369360
v -0.032610 0.019704 -1.399508
v -0.032610 0.041384 -1.419653
v -0.032610 0.094816 -1.426727
v -0.032610 1.946894 -1.333798
v -0.032610 0.000132 1.454068
v -0.032610 1.941807 1.489631
v -0.032610 1.927321 1.519779
v -0.032610 1.905641 1.539924
v -0.032610 1.880068 1.546997
v -0.044167 0.005920 -1.325508
v -0.044167 1.936049 -1.360859
v -0.044167 1.921649 -1.390828
v -0.044167 1.900098 -1.410853
v -0.044167 1.874676 -1.417884
v -0.044167 0.010977 1.481130
v -0.044167 0.025377 1.511099
v -0.044167 0.046928 1.531123
v -0.044167 0.072349 1.538155
v -0.044167 1.941105 1.445779
v -0.044167 0.010977 -1.360859
v -0.044167 0.025377 -1.390828
v -0.044167 0.046928 -1.410853
v -0.044167 0.072349 -1.417884
v -0.044167 1.941105 -1.325508
v -0.044167 0.005920 1.445779
v -0.044167 1.936049 1.481130
v -0.044167 1.921649 1.511099
v -0.044167 1.900098 1.531123
v -0.044167 1.874676 1.538155
v -0.061285 1.721724 -1.292449
v -0.013444 1.721724 -1.292449
v -0.061285 1.703722 -1.290676
v -0.013444 1.703722 -1.290676
v -0.061285 1.686412 -1.285425
v -0.013444 1.686412 -1.285425
v -0.061285 1.670459 -1.276898
v -0.013444 1.670459 -1.276898
v -0.061285 1.656477 -1.265423
v -0.013444 1.656477 -1.265423
v -0.061285 1.645001 -1.251440
v -0.013444 1.645001 -1.251440
v -0.061285 1.636474 -1.235487
v -0.013444 1.636474 -1.235487
v -0.061285 1.631223 -1.218177
v -0.013444 1.631223 -1.218177
v -0.061285 1.629450 -1.200176
v -0.013444 1.629450 -1.200176
v -0.061285 1.631223 -1.182174
v -0.013444 1.631223 -1.182174
v -0.061285 1.636474 -1.164865
v -0.013444 1.636474 -1.164865
v -0.061285 1.645001 -1.148912
v -0.013444 1.645001 -1.148912
v -0.061285 1.656477 -1.134929
v -0.013444 1.656477 -1.134929
v -0.061285 1.670459 -1.123454
v -0.013444 1.670459 -1.123454
v -0.061285 1.686412 -1.114927
v -0.013444 1.686412 -1.114927
v -0.061285 1.703722 -1.109676
v -0.013444 1.703722 -1.109676
v -0.061285 1.721724 -1.107903
v -0.013444 1.721724 -1.107903
v -0.061285 1.739725 -1.109676
v -0.013444 1.739725 -1.109676
v -0.061285 1.757035 -1.114927
v -0.013444 1.757035 -1.114927
v -0.061285 1.772988 -1.123454
v -0.013444 1.772988 -1.123454
v -0.061285 1.786970 -1.134929
v -0.013444 1.786970 -1.134929
v -0.061285 1.798446 -1.148912
v -0.013444 1.798446 -1.148912
v -0.061285 1.806973 -1.164865
v -0.013444 1.806973 -1.164865
v -0.061285 1.812224 -1.182174
v -0.013444 1.812224 -1.182174
v -0.061285 1.813997 -1.200176
v -0.013444 1.813997 -1.200176
v -0.061285 1.812224 -1.218177
v -0.013444 1.812224 -1.218177
v -0.061285 1.806973 -1.235487
v -0.013444 1.806973 -1.235487
v -0.061285 1.798446 -1.251440
v -0.013444 1.798446 -1.251440
v -0.061285 1.786970 -1.265423
v -0.013444 1.786970 -1.265423
v -0.061285 1.772988 -1.276898
v -0.013444 1.772988 -1.276898
v -0.061285 1.757035 -1.285425
v -0.013444 1.757035 -1.285425
v -0.061285 1.739725 -1.290676
v -0.013444 1.739725 -1.290676
v -0.042825 1.721724 -1.221237
v -0.042825 1.717615 -1.220832
v -0.031905 1.717615 -1.220832
v -0.031905 1.721724 -1.221237
v -0.042825 1.713664 -1.219634
v -0.031905 1.713664 -1.219634
v -0.042825 1.710023 -1.217688
v -0.031905 1.710023 -1.217688
v -0.042825 1.706831 -1.215068
v -0.031905 1.706831 -1.215068
v -0.042825 1.704212 -1.211877
v -0.031905 1.704212 -1.211877
v -0.042825 1.702266 -1.208236
v -0.031905 1.702266 -1.208236
v -0.042825 1.701067 -1.204285
v -0.031905 1.701067 -1.204285
v -0.042825 1.700663 -1.200176
v -0.031905 1.700663 -1.200176
v -0.042825 1.701067 -1.196067
v -0.031905 1.701067 -1.196067
v -0.042825 1.702266 -1.192116
v -0.031905 1.702266 -1.192116
v -0.042825 1.704212 -1.188475
v -0.031905 1.704212 -1.188475
v -0.042825 1.706831 -1.185284
v -0.031905 1.706831 -1.185284
v -0.042825 1.710023 -1.182665
v -0.031905 1.710023 -1.182665
v -0.042825 1.713664 -1.180718
v -0.031905 1.713664 -1.180718
v -0.042825 1.717615 -1.179520
v -0.031905 1.717615 -1.179520
v -0.042825 1.721724 -1.179115
v -0.031905 1.721724 -1.179115
v -0.042825 1.725832 -1.179520
v -0.031905 1.725832 -1.179520
v -0.042825 1.729783 -1.180718
v -0.031905 1.729783 -1.180718
v -0.042825 1.733424 -1.182665
v -0.031905 1.733424 -1.182665
v -0.042825 1.736616 -1.185284
v -0.031905 1.736616 -1.185284
v -0.042825 1.739235 -1.188475
v -0.031905 1.739235 -1.188475
v -0.042825 1.741181 -1.192116
v -0.031905 1.741181 -1.192116
v -0.042825 1.742380 -1.196067
v -0.031905 1.742380 -1.196067
v -0.042825 1.742785 -1.200176
v -0.031905 1.742785 -1.200176
v -0.042825 1.742380 -1.204285
v -0.031905 1.742380 -1.204285
v -0.042825 1.741181 -1.208236
v -0.031905 1.741181 -1.208236
v -0.042825 1.739235 -1.211877
v -0.031905 1.739235 -1.211877
v -0.042825 1.736616 -1.215068
v -0.031905 1.736616 -1.215068
v -0.042825 1.733424 -1.217688
v -0.031905 1.733424 -1.217688
v -0.042825 1.729783 -1.219634
v -0.031905 1.729783 -1.219634
v -0.042825 1.725832 -1.220832
v -0.031905 1.725832 -1.220832
v -0.061285 1.721723 -1.224180
v -0.061285 1.717041 -1.223719
v -0.061285 1.712538 -1.222353
v -0.061285 1.708387 -1.220135
v -0.061285 1.704750 -1.217149
v -0.061285 1.701765 -1.213512
v -0.061285 1.699547 -1.209362
v -0.061285 1.698181 -1.204859
v -0.061285 1.697719 -1.200176
v -0.061285 1.698181 -1.195493
v -0.061285 1.699547 -1.190990
v -0.061285 1.701765 -1.186840
v -0.061285 1.704750 -1.183203
v -0.061285 1.708387 -1.180217
v -0.061285 1.712538 -1.177999
v -0.061285 1.717041 -1.176633
v -0.061285 1.721723 -1.176172
v -0.061285 1.726406 -1.176633
v -0.061285 1.730909 -1.177999
v -0.061285 1.735059 -1.180217
v -0.061285 1.738697 -1.183203
v -0.061285 1.741682 -1.186840
v -0.061285 1.743900 -1.190990
v -0.061285 1.745266 -1.195493
v -0.061285 1.745728 -1.200176
v -0.061285 1.745266 -1.204859
v -0.061285 1.743900 -1.209362
v -0.061285 1.741682 -1.213512
v -0.061285 1.738697 -1.217149
v -0.061285 1.735059 -1.220135
v -0.061285 1.730909 -1.222353
v -0.061285 1.726406 -1.223719
v -0.050636 1.849918 1.530413
v -0.050636 1.849919 -1.410142
v -0.032610 1.071321 1.546997
v 0.011076 1.071319 1.546997
v -0.009495 1.071320 1.546997
v -0.032610 0.873506 1.546997
v 0.011076 0.873506 1.546997
v -0.009495 0.873506 1.546997
v 0.007023 1.018192 1.546997
v -0.009495 1.032977 1.546997
v -0.028557 1.018193 1.546997
v -0.028557 0.926634 1.546997
v 0.007023 0.926633 1.546997
v -0.009495 0.911849 1.546997
v 0.007023 1.018192 1.524995
v -0.009495 1.032977 1.524995
v -0.028557 1.018193 1.524995
v -0.028557 0.926634 1.524995
v 0.007023 0.926633 1.524995
v -0.009495 0.911849 1.524995
v 0.000790 0.000132 -1.333798
v 0.000790 1.941807 -1.369360
v 0.000790 1.927321 -1.399508
v 0.000790 1.905641 -1.419653
v 0.000790 1.880068 -1.426727
v 0.000790 0.005218 1.489631
v 0.000790 0.019704 1.519779
v 0.000790 0.041384 1.539924
v 0.000790 0.066958 1.546997
v 0.000790 1.946894 1.454068
v 0.000790 0.005218 -1.369360
v 0.000790 0.019704 -1.399508
v 0.000790 0.041384 -1.419653
v 0.000790 0.082358 -1.426727
v 0.000790 1.946894 -1.333798
v 0.000790 0.000132 1.454068
v 0.000790 1.941807 1.489631
v 0.000790 1.927321 1.519779
v 0.000790 1.905641 1.539924
v 0.000790 1.880068 1.546997
v 0.000790 1.071320 1.546997
v 0.000790 0.873506 1.546997
v 0.000790 1.029969 1.546997
v 0.000790 0.914857 1.546997
v 0.000790 1.029969 1.524995
v 0.000790 0.914857 1.524995
v -0.021052 0.005218 -1.369360
v -0.021052 0.019704 -1.399508
v -0.021052 0.041384 -1.419653
v -0.021052 0.082358 -1.426727
v -0.021052 1.946894 -1.333798
v -0.021052 0.000132 1.454068
v -0.021052 1.941807 1.489631
v -0.021052 1.927321 1.519779
v -0.021052 1.905641 1.539924
v -0.021052 1.880068 1.546997
v -0.021052 0.000132 -1.333798
v -0.021052 1.941807 -1.369360
v -0.021052 1.927321 -1.399508
v -0.021052 1.905641 -1.419653
v -0.021052 1.880068 -1.426727
v -0.021052 0.005218 1.489631
v -0.021052 0.019704 1.519779
v -0.021052 0.041384 1.539924
v -0.021052 0.066958 1.546997
v -0.021052 1.946894 1.454068
v -0.021052 1.071320 1.546997
v -0.021052 0.873506 1.546997
v -0.021052 1.029969 1.546997
v -0.021052 0.914857 1.546997
v -0.021052 1.029969 1.524995
v -0.021052 0.914857 1.524995
v -0.001304 0.997027 1.540613
v -0.009938 1.005160 1.540613
v -0.019639 0.997027 1.540613
v -0.019639 0.947799 1.540613
v -0.001304 0.947799 1.540613
v -0.009938 0.939666 1.540613
v -0.001304 0.997027 1.531379
v -0.009938 1.005160 1.531379
v -0.019639 0.997027 1.531379
v -0.019639 0.947799 1.531379
v -0.001304 0.947799 1.531379
v -0.009938 0.939666 1.531379
v -0.005621 1.003534 1.540613
v -0.005621 0.941292 1.540613
v -0.005621 1.003534 1.531379
v -0.005621 0.941292 1.531379
v -0.014788 1.003534 1.540613
v -0.014788 0.941292 1.540613
v -0.014788 1.003534 1.531379
v -0.014788 0.941292 1.531379
v -0.032610 1.677881 1.546997
v 0.011076 1.677881 1.546997
v -0.009495 1.677881 1.546997
v 0.000790 1.673331 1.546997
v -0.021052 1.673332 1.546997
v -0.032610 1.222961 1.546997
v 0.011076 1.222960 1.546997
v -0.009495 1.222960 1.546997
v 0.000790 1.227509 1.546997
v -0.021052 1.227510 1.546997
v -0.009495 0.268595 1.546997
v 0.011076 0.268595 1.546997
v -0.032610 0.268595 1.546997
v 0.000790 0.273132 1.546997
v -0.021052 0.273132 1.546997
v -0.009495 0.722278 1.546997
v 0.011076 0.722278 1.546997
v -0.032610 0.722278 1.546997
v 0.000790 0.717741 1.546997
v -0.021052 0.717741 1.546997
v 0.000790 1.227509 1.534703
v 0.000790 1.673331 1.534703
v -0.021052 1.227510 1.534703
v -0.021052 1.673332 1.534703
v -0.009495 1.677881 1.534703
v -0.009495 1.222960 1.534703
v -0.009495 0.722278 1.534703
v -0.009495 0.268595 1.534703
v 0.000790 0.717741 1.534703
v 0.000790 0.273132 1.534703
v -0.021052 0.717741 1.534703
v -0.021052 0.273132 1.534703
v 0.031646 0.152549 -1.405983
v 0.026558 0.144031 -1.416688
v 0.031646 0.214425 -1.309444
v -0.009495 0.126271 -1.426727
v 0.011076 0.110534 -1.426727
v 0.021361 0.138392 -1.426727
v -0.032610 0.110534 -1.426727
v -0.044167 0.143359 -1.417884
v 0.000790 0.122992 -1.426727
v -0.021052 0.122992 -1.426727
v -0.021052 0.082358 -1.406976
v -0.009495 0.079079 -1.406976
v -0.009495 0.126271 -1.406976
v 0.000790 0.082358 -1.406976
v 0.011076 0.094816 -1.406976
v 0.011076 0.110534 -1.406976
v -0.032610 0.110534 -1.406976
v -0.032610 0.094816 -1.406976
v 0.000790 0.122992 -1.406976
v -0.021052 0.122992 -1.406976
v -0.028089 1.939840 -0.997499
v -0.028089 1.956842 -0.997499
v -0.034348 1.939840 -1.008339
v -0.034348 1.956842 -1.008339
v -0.034348 1.939840 -1.080708
v -0.034348 1.956842 -1.080708
v -0.028089 1.939840 -1.091549
v -0.028089 1.956842 -1.091549
v -0.017248 1.939840 -1.097807
v -0.017248 1.956842 -1.097807
v -0.004731 1.939840 -1.097808
v -0.004731 1.956842 -1.097808
v 0.006110 1.939840 -1.091549
v 0.006110 1.956842 -1.091549
v 0.012368 1.939840 -1.080708
v 0.012368 1.956842 -1.080708
v 0.012368 1.939840 -1.008339
v 0.012368 1.956842 -1.008339
v 0.006110 1.939840 -0.997499
v 0.006110 1.956842 -0.997499
v -0.004731 1.939840 -0.991240
v -0.004731 1.956842 -0.991240
v -0.017248 1.939840 -0.991240
v -0.017248 1.956842 -0.991240
v -0.028089 1.939840 -0.588976
v -0.028089 1.956842 -0.588976
v -0.034348 1.939840 -0.599816
v -0.034348 1.956842 -0.599816
v -0.034348 1.939840 -0.840693
v -0.034348 1.956842 -0.840693
v -0.028089 1.939840 -0.851534
v -0.028089 1.956842 -0.851534
v -0.017248 1.939840 -0.857793
v -0.017248 1.956842 -0.857793
v -0.004731 1.939840 -0.857793
v -0.004731 1.956842 -0.857793
v 0.006110 1.939840 -0.851534
v 0.006110 1.956842 -0.851534
v 0.012368 1.939840 -0.840693
v 0.012368 1.956842 -0.840693
v 0.012368 1.939840 -0.599816
v 0.012368 1.956842 -0.599816
v 0.006110 1.939840 -0.588976
v 0.006110 1.956842 -0.588976
v -0.004731 1.939840 -0.582717
v -0.004731 1.956842 -0.582717
v -0.017248 1.939840 -0.582717
v -0.017248 1.956842 -0.582717
v 0.031646 1.930394 0.060135
v 0.026558 1.940322 0.060135
v -0.050636 1.934450 0.060135
v 0.031646 1.827243 0.060135
v -0.009495 1.946894 0.060135
v 0.011076 1.946894 0.060135
v 0.021361 1.946894 0.060135
v -0.032610 1.946894 0.060135
v -0.044167 1.941105 0.060135
v 0.000790 1.946894 0.060135
v -0.021052 1.946894 0.060135
v 0.031646 1.930394 0.039518
v 0.026558 1.940322 0.039368
v -0.050636 1.934450 0.039460
v 0.031646 1.827243 0.040242
v -0.009495 1.946894 0.039226
v 0.011076 1.946894 0.039226
v 0.021361 1.946894 0.039226
v -0.032610 1.946894 0.039226
v -0.044167 1.941105 0.039351
v 0.000790 1.946894 0.039226
v -0.021052 1.946894 0.039226
v 0.031646 1.930394 0.080753
v 0.026558 1.940322 0.080903
v -0.050636 1.934450 0.080811
v 0.031646 1.827243 0.080029
v -0.009495 1.946894 0.081044
v 0.011076 1.946894 0.081044
v 0.021361 1.946894 0.081044
v -0.032610 1.946894 0.081044
v -0.044167 1.941105 0.080920
v 0.000790 1.946894 0.081044
v -0.021052 1.946894 0.081044
v 0.031646 0.127294 1.461622
v 0.031646 1.819731 1.461622
v 0.031646 0.085690 1.402322
v 0.031646 0.088857 1.425015
v 0.031646 1.835652 1.457108
v 0.031646 1.849149 1.444253
v 0.031646 1.858168 1.425015
v 0.031646 1.858168 -1.304744
v 0.031646 1.849149 -1.323983
v 0.031646 1.861335 1.402322
v 0.031646 0.127294 -1.341351
v 0.031646 0.111373 -1.336837
v 0.031646 0.085690 -1.282052
v 0.031646 0.097876 -1.323983
v 0.031646 0.088857 -1.304744
v 0.031646 0.111373 1.457108
v 0.031646 1.819731 -1.341351
v 0.031646 1.835652 -1.336837
v 0.031646 0.097876 1.444253
v 0.031646 1.861335 -1.282052
v 0.031646 0.193974 -1.341351
v 0.031646 1.861335 0.060135
v 0.031646 1.869833 0.045374
v 0.031646 1.869833 0.074896
v 0.031646 1.842314 1.494079
v 0.031646 0.055098 1.447449
v 0.031646 1.862865 1.488329
v 0.031646 1.880287 1.471955
v 0.031646 1.891927 1.447449
v 0.031646 1.880287 -1.351684
v 0.031646 1.896015 1.418543
v 0.031646 0.084161 -1.368059
v 0.031646 0.055098 -1.327178
v 0.031646 1.896015 -1.298272
v 0.031646 0.104711 1.494079
v 0.031646 0.051010 1.418543
v 0.031646 1.891927 -1.327178
v 0.031646 0.104711 -1.373809
v 0.031646 0.051010 -1.298272
v 0.031646 0.066739 -1.351684
v 0.031646 0.084161 1.488329
v 0.031646 1.842314 -1.373809
v 0.031646 1.862865 -1.368059
v 0.031646 0.066739 1.471955
v 0.031646 0.173171 -1.373809
v 0.031646 1.896015 0.060135
v 0.031646 1.887517 0.045196
v 0.031646 1.887517 0.075075
vt 0.625000 0.742188
vt 0.625000 0.745177
vt 0.625000 0.745177
vt 0.625000 0.742188
vt 0.616418 0.500000
vt 0.619702 0.500000
vt 0.619702 0.500000
vt 0.616418 0.500000
vt 0.375000 0.742188
vt 0.375000 0.507812
vt 0.375000 0.507812
vt 0.375000 0.742188
vt 0.375000 0.750000
vt 0.375000 0.745177
vt 0.375000 0.745177
vt 0.375000 0.750000
vt 0.156250 0.742188
vt 0.125000 0.742188
vt 0.125000 0.507812
vt 0.156250 0.507812
vt 0.392755 0.468750
vt 0.616418 0.468750
vt 0.392755 0.500000
vt 0.375000 0.504823
vt 0.375000 0.504823
vt 0.383582 0.750000
vt 0.380298 0.750000
vt 0.380298 0.750000
vt 0.383582 0.750000
vt 0.625000 0.504823
vt 0.625000 0.507812
vt 0.625000 0.507812
vt 0.625000 0.504823
vt 0.392755 0.500000
vt 0.619702 0.750000
vt 0.616418 0.750000
vt 0.616418 0.750000
vt 0.619702 0.750000
vt 0.625000 0.750000
vt 0.625000 0.750000
vt 0.375000 0.500000
vt 0.380298 0.500000
vt 0.380298 0.500000
vt 0.375000 0.500000
vt 0.625000 0.500000
vt 0.625000 0.500000
vt 0.625000 0.626758
vt 0.625000 0.626758
vt 0.383582 0.500000
vt 0.383582 0.500000
vt 0.383582 0.968750
vt 0.616418 0.968750
vt 0.616418 1.000000
vt 0.614004 1.000000
vt 0.383582 1.000000
vt 0.125000 0.504823
vt 0.156250 0.504823
vt 0.125000 0.500000
vt 0.156250 0.500000
vt 0.375000 0.281250
vt 0.375000 0.250000
vt 0.380298 0.250000
vt 0.380298 0.281250
vt 0.383582 0.250000
vt 0.383582 0.281250
vt 0.656250 0.507812
vt 0.656250 0.504823
vt 0.656250 0.500000
vt 0.625000 0.468750
vt 0.619702 0.468750
vt 0.343750 0.742188
vt 0.343750 0.745177
vt 0.343750 0.750000
vt 0.375000 0.781250
vt 0.380298 0.781250
vt 0.383582 0.781250
vt 0.843750 0.742188
vt 0.875000 0.742188
vt 0.875000 0.745177
vt 0.843750 0.745177
vt 0.875000 0.750000
vt 0.843750 0.750000
vt 0.625000 0.968750
vt 0.625000 1.000000
vt 0.619702 1.000000
vt 0.619702 0.968750
vt 0.656250 0.623242
vt 0.625000 0.623242
vt 0.781250 0.623242
vt 0.750000 0.623242
vt 0.750000 0.507812
vt 0.781250 0.507812
vt 0.619702 0.843750
vt 0.619702 0.875000
vt 0.616418 0.875000
vt 0.616418 0.843750
vt 0.625000 0.843750
vt 0.625000 0.875000
vt 0.718750 0.745177
vt 0.750000 0.745177
vt 0.750000 0.750000
vt 0.718750 0.750000
vt 0.718750 0.742188
vt 0.750000 0.742188
vt 0.380298 0.906250
vt 0.380298 0.875000
vt 0.383582 0.875000
vt 0.383582 0.906250
vt 0.375000 0.906250
vt 0.375000 0.875000
vt 0.218750 0.745177
vt 0.250000 0.745177
vt 0.250000 0.750000
vt 0.218750 0.750000
vt 0.218750 0.742188
vt 0.250000 0.742188
vt 0.619702 0.343750
vt 0.619702 0.375000
vt 0.616418 0.375000
vt 0.616418 0.343750
vt 0.625000 0.343750
vt 0.625000 0.375000
vt 0.781250 0.504823
vt 0.750000 0.504823
vt 0.750000 0.500000
vt 0.781250 0.500000
vt 0.380298 0.406250
vt 0.380298 0.375000
vt 0.383582 0.375000
vt 0.383582 0.406250
vt 0.375000 0.406250
vt 0.375000 0.375000
vt 0.281250 0.504823
vt 0.250000 0.504823
vt 0.250000 0.500000
vt 0.281250 0.500000
vt 0.281250 0.507812
vt 0.250000 0.507812
vt 0.467737 0.843750
vt 0.487157 0.843750
vt 0.487157 0.875000
vt 0.467737 0.875000
vt 0.392755 0.343750
vt 0.392755 0.375000
vt 0.281250 0.742188
vt 0.312500 0.742188
vt 0.312500 0.507812
vt 0.343750 0.507812
vt 0.616418 0.781250
vt 0.616418 0.812500
vt 0.590454 0.812500
vt 0.532034 0.812500
vt 0.512560 0.812500
vt 0.487157 0.812500
vt 0.467737 0.812500
vt 0.409476 0.812500
vt 0.383582 0.812500
vt 0.312500 0.504823
vt 0.343750 0.504823
vt 0.312500 0.500000
vt 0.343750 0.500000
vt 0.375000 0.468750
vt 0.375000 0.437500
vt 0.380298 0.437500
vt 0.380298 0.468750
vt 0.383582 0.437500
vt 0.383582 0.468750
vt 0.656250 0.742188
vt 0.687500 0.742188
vt 0.687500 0.745177
vt 0.656250 0.745177
vt 0.687500 0.750000
vt 0.656250 0.750000
vt 0.625000 0.781250
vt 0.625000 0.812500
vt 0.619702 0.812500
vt 0.619702 0.781250
vt 0.718750 0.623242
vt 0.687500 0.623242
vt 0.687500 0.507812
vt 0.718750 0.507812
vt 0.380298 0.843750
vt 0.380298 0.812500
vt 0.383582 0.843750
vt 0.375000 0.843750
vt 0.375000 0.812500
vt 0.281250 0.745177
vt 0.312500 0.745177
vt 0.312500 0.750000
vt 0.281250 0.750000
vt 0.619702 0.406250
vt 0.619702 0.437500
vt 0.616418 0.437500
vt 0.616418 0.406250
vt 0.625000 0.406250
vt 0.625000 0.437500
vt 0.718750 0.504823
vt 0.687500 0.504823
vt 0.687500 0.500000
vt 0.718750 0.500000
vt 0.392755 0.406250
vt 0.392755 0.437500
vt 0.392755 0.281250
vt 0.616418 0.281250
vt 0.616418 0.312500
vt 0.392755 0.312500
vt 0.843750 0.507812
vt 0.812500 0.507812
vt 0.812500 0.504823
vt 0.843750 0.504823
vt 0.812500 0.500000
vt 0.843750 0.500000
vt 0.625000 0.281250
vt 0.625000 0.312500
vt 0.619702 0.312500
vt 0.619702 0.281250
vt 0.187500 0.742188
vt 0.187500 0.745177
vt 0.156250 0.745177
vt 0.187500 0.750000
vt 0.156250 0.750000
vt 0.375000 0.968750
vt 0.375000 0.937500
vt 0.380298 0.937500
vt 0.380298 0.968750
vt 0.383582 0.937500
vt 0.843750 0.623242
vt 0.812500 0.623242
vt 0.619702 0.906250
vt 0.619702 0.937500
vt 0.616418 0.937500
vt 0.616418 0.906250
vt 0.625000 0.906250
vt 0.625000 0.937500
vt 0.781250 0.745177
vt 0.812500 0.745177
vt 0.812500 0.750000
vt 0.781250 0.750000
vt 0.781250 0.742188
vt 0.812500 0.742188
vt 0.380298 0.343750
vt 0.380298 0.312500
vt 0.383582 0.312500
vt 0.383582 0.343750
vt 0.375000 0.343750
vt 0.375000 0.312500
vt 0.218750 0.504823
vt 0.187500 0.504823
vt 0.187500 0.500000
vt 0.218750 0.500000
vt 0.218750 0.507812
vt 0.187500 0.507812
vt 0.467737 0.906250
vt 0.487157 0.906250
vt 0.487157 0.937500
vt 0.467737 0.937500
vt 0.875000 0.623242
vt 0.875000 0.507812
vt 0.380298 1.000000
vt 0.375000 1.000000
vt 0.125000 0.745177
vt 0.125000 0.750000
vt 0.619702 0.250000
vt 0.616418 0.250000
vt 0.625000 0.250000
vt 0.875000 0.504823
vt 0.875000 0.500000
vt 0.614004 0.250000
vt 0.409476 0.937500
vt 0.512560 0.937500
vt 0.532034 0.937500
vt 0.590454 0.937500
vt 0.296822 0.485388
vt 0.341844 0.471731
vt 0.383337 0.449553
vt 0.419706 0.419706
vt 0.449553 0.383337
vt 0.471731 0.341844
vt 0.485388 0.296822
vt 0.490000 0.250000
vt 0.485388 0.203178
vt 0.471731 0.158156
vt 0.449553 0.116663
vt 0.419706 0.080294
vt 0.383337 0.050447
vt 0.341844 0.028269
vt 0.296822 0.014612
vt 0.250000 0.010000
vt 0.203178 0.014612
vt 0.158156 0.028269
vt 0.116663 0.050447
vt 0.080294 0.080294
vt 0.050447 0.116663
vt 0.028269 0.158156
vt 0.014612 0.203178
vt 0.010000 0.250000
vt 0.014612 0.296822
vt 0.028269 0.341844
vt 0.050447 0.383337
vt 0.080294 0.419706
vt 0.116663 0.449553
vt 0.158156 0.471731
vt 0.203178 0.485388
vt 0.250000 0.490000
vt 1.000000 0.500000
vt 1.000000 1.000000
vt 0.968750 1.000000
vt 0.968750 0.500000
vt 0.937500 1.000000
vt 0.937500 0.500000
vt 0.906250 1.000000
vt 0.906250 0.500000
vt 0.875000 1.000000
vt 0.875000 0.500000
vt 0.843750 1.000000
vt 0.843750 0.500000
vt 0.812500 1.000000
vt 0.812500 0.500000
vt 0.781250 1.000000
vt 0.781250 0.500000
vt 0.750000 1.000000
vt 0.750000 0.500000
vt 0.718750 1.000000
vt 0.718750 0.500000
vt 0.687500 1.000000
vt 0.687500 0.500000
vt 0.656250 1.000000
vt 0.656250 0.500000
vt 0.625000 1.000000
vt 0.625000 0.500000
vt 0.593750 1.000000
vt 0.593750 0.500000
vt 0.562500 1.000000
vt 0.562500 0.500000
vt 0.531250 1.000000
vt 0.531250 0.500000
vt 0.500000 1.000000
vt 0.500000 0.500000
vt 0.468750 1.000000
vt 0.468750 0.500000
vt 0.437500 1.000000
vt 0.437500 0.500000
vt 0.406250 1.000000
vt 0.406250 0.500000
vt 0.375000 1.000000
vt 0.375000 0.500000
vt 0.343750 1.000000
vt 0.343750 0.500000
vt 0.312500 1.000000
vt 0.312500 0.500000
vt 0.281250 1.000000
vt 0.281250 0.500000
vt 0.250000 1.000000
vt 0.250000 0.500000
vt 0.218750 1.000000
vt 0.218750 0.500000
vt 0.187500 1.000000
vt 0.187500 0.500000
vt 0.156250 1.000000
vt 0.156250 0.500000
vt 0.125000 1.000000
vt 0.125000 0.500000
vt 0.093750 1.000000
vt 0.093750 0.500000
vt 0.062500 1.000000
vt 0.062500 0.500000
vt 0.296822 0.485388
vt 0.250000 0.490000
vt 0.203178 0.485388
vt 0.158156 0.471731
vt 0.116663 0.449553
vt 0.080294 0.419706
vt 0.050447 0.383337
vt 0.028269 0.341844
vt 0.014612 0.296822
vt 0.010000 0.250000
vt 0.014612 0.203178
vt 0.028269 0.158156
vt 0.050447 0.116663
vt 0.080294 0.080294
vt 0.116663 0.050447
vt 0.158156 0.028269
vt 0.203178 0.014612
vt 0.250000 0.010000
vt 0.296822 0.014612
vt 0.341844 0.028269
vt 0.383337 0.050447
vt 0.419706 0.080294
vt 0.449553 0.116663
vt 0.471731 0.158156
vt 0.485388 0.203178
vt 0.490000 0.250000
vt 0.485388 0.296822
vt 0.471731 0.341844
vt 0.449553 0.383337
vt 0.419706 0.419706
vt 0.383337 0.449553
vt 0.341844 0.471731
vt 0.031250 1.000000
vt 0.031250 0.500000
vt 0.000000 1.000000
vt 0.000000 0.500000
vt 0.750000 0.490000
vt 0.796822 0.485388
vt 0.841844 0.471731
vt 0.883337 0.449553
vt 0.919706 0.419706
vt 0.949553 0.383337
vt 0.971731 0.341844
vt 0.985388 0.296822
vt 0.990000 0.250000
vt 0.985388 0.203178
vt 0.971731 0.158156
vt 0.949553 0.116663
vt 0.919706 0.080294
vt 0.883337 0.050447
vt 0.841844 0.028269
vt 0.796822 0.014612
vt 0.750000 0.010000
vt 0.703178 0.014612
vt 0.658156 0.028269
vt 0.616663 0.050447
vt 0.580294 0.080294
vt 0.550447 0.116663
vt 0.528269 0.158156
vt 0.514612 0.203178
vt 0.510000 0.250000
vt 0.514612 0.296822
vt 0.528269 0.341844
vt 0.550447 0.383337
vt 0.580294 0.419706
vt 0.616663 0.449553
vt 0.658156 0.471731
vt 0.703178 0.485388
vt 0.614004 0.000000
vt 0.380298 0.249405
vt 0.377514 0.247712
vt 0.375653 0.245177
vt 0.375000 0.242188
vt 0.375000 0.007812
vt 0.375653 0.004823
vt 0.377514 0.002288
vt 0.380298 0.000595
vt 0.383582 0.000000
vt 0.590454 0.843750
vt 0.590454 0.906250
vt 0.590454 0.875000
vt 0.487157 0.812500
vt 0.487157 0.843750
vt 0.512560 0.843750
vt 0.512560 0.875000
vt 0.512560 0.875000
vt 0.512560 0.843750
vt 0.512560 0.812500
vt 0.512560 0.906250
vt 0.512560 0.937500
vt 0.512560 0.906250
vt 0.487157 0.875000
vt 0.487157 0.906250
vt 0.487157 0.937500
vt 0.512560 0.875000
vt 0.512560 0.906250
vt 0.512560 0.937500
vt 0.487157 0.937500
vt 0.487157 0.906250
vt 0.487157 0.875000
vt 0.487157 0.843750
vt 0.487157 0.812500
vt 0.512560 0.812500
vt 0.512560 0.843750
vt 0.532034 0.906250
vt 0.532034 0.843750
vt 0.532034 0.875000
vt 0.409476 0.875000
vt 0.409476 0.906250
vt 0.409476 0.843750
vt 1.000000 0.500000
vt 1.000000 1.000000
vt 0.916667 1.000000
vt 0.916667 0.500000
vt 0.833333 1.000000
vt 0.833333 0.500000
vt 0.750000 1.000000
vt 0.750000 0.500000
vt 0.666667 1.000000
vt 0.666667 0.500000
vt 0.583333 1.000000
vt 0.583333 0.500000
vt 0.500000 1.000000
vt 0.500000 0.500000
vt 0.416667 1.000000
vt 0.416667 0.500000
vt 0.333333 1.000000
vt 0.333333 0.500000
vt 0.250000 1.000000
vt 0.250000 0.500000
vt 0.166667 1.000000
vt 0.166667 0.500000
vt 0.370000 0.457846
vt 0.250000 0.490000
vt 0.130000 0.457846
vt 0.042154 0.370000
vt 0.010000 0.250000
vt 0.042154 0.130000
vt 0.130000 0.042154
vt 0.250000 0.010000
vt 0.370000 0.042154
vt 0.457846 0.130000
vt 0.490000 0.250000
vt 0.457846 0.370000
vt 0.083333 1.000000
vt 0.083333 0.500000
vt 0.000000 1.000000
vt 0.000000 0.500000
vt 0.750000 0.490000
vt 0.870000 0.457846
vt 0.957846 0.370000
vt 0.990000 0.250000
vt 0.957846 0.130000
vt 0.870000 0.042154
vt 0.750000 0.010000
vt 0.630000 0.042154
vt 0.542154 0.130000
vt 0.510000 0.250000
vt 0.542154 0.370000
vt 0.630000 0.457846
vt 1.000000 0.500000
vt 1.000000 1.000000
vt 0.916667 1.000000
vt 0.916667 0.500000
vt 0.833333 1.000000
vt 0.833333 0.500000
vt 0.750000 1.000000
vt 0.750000 0.500000
vt 0.666667 1.000000
vt 0.666667 0.500000
vt 0.583333 1.000000
vt 0.583333 0.500000
vt 0.500000 1.000000
vt 0.500000 0.500000
vt 0.416667 1.000000
vt 0.416667 0.500000
vt 0.333333 1.000000
vt 0.333333 0.500000
vt 0.250000 1.000000
vt 0.250000 0.500000
vt 0.166667 1.000000
vt 0.166667 0.500000
vt 0.370000 0.457846
vt 0.250000 0.490000
vt 0.130000 0.457846
vt 0.042154 0.370000
vt 0.010000 0.250000
vt 0.042154 0.130000
vt 0.130000 0.042154
vt 0.250000 0.010000
vt 0.370000 0.042154
vt 0.457846 0.130000
vt 0.490000 0.250000
vt 0.457846 0.370000
vt 0.083333 1.000000
vt 0.083333 0.500000
vt 0.000000 1.000000
vt 0.000000 0.500000
vt 0.750000 0.490000
vt 0.870000 0.457846
vt 0.957846 0.370000
vt 0.990000 0.250000
vt 0.957846 0.130000
vt 0.870000 0.042154
vt 0.750000 0.010000
vt 0.630000 0.042154
vt 0.542154 0.130000
vt 0.510000 0.250000
vt 0.542154 0.370000
vt 0.630000 0.457846
vt 0.812500 0.626758
vt 0.781250 0.626758
vt 0.781250 0.625000
vt 0.812500 0.625000
vt 0.750000 0.626758
vt 0.718750 0.626758
vt 0.718750 0.625000
vt 0.750000 0.625000
vt 0.875000 0.626758
vt 0.843750 0.626758
vt 0.843750 0.625000
vt 0.875000 0.625000
vt 0.687500 0.626758
vt 0.656250 0.626758
vt 0.656250 0.625000
vt 0.687500 0.625000
vt 0.625000 0.625000
vt 0.625000 0.625000
vt 0.625000 0.623242
vt 0.616418 0.750000
vt 0.383582 0.750000
vt 0.383582 0.750000
vt 0.616418 0.750000
vt 0.375000 0.745177
vt 0.375000 0.742188
vt 0.375000 0.742188
vt 0.375000 0.745177
vt 0.619702 0.750000
vt 0.619702 0.750000
vt 0.625000 0.750000
vt 0.625000 0.750000
vt 0.625000 0.745177
vt 0.625000 0.745177
vt 0.625000 0.500000
vt 0.625000 0.504823
vt 0.625000 0.504823
vt 0.625000 0.500000
vt 0.625000 0.742188
vt 0.625000 0.742188
vt 0.380298 0.500000
vt 0.383582 0.500000
vt 0.383582 0.500000
vt 0.380298 0.500000
vt 0.375000 0.507812
vt 0.375000 0.507812
vt 0.375000 0.504823
vt 0.375000 0.500000
vt 0.375000 0.500000
vt 0.375000 0.504823
vt 0.380298 0.750000
vt 0.380298 0.750000
vt 0.392755 0.500000
vt 0.616418 0.500000
vt 0.616418 0.500000
vt 0.392755 0.500000
vt 0.619702 0.500000
vt 0.619702 0.500000
vt 0.375000 0.750000
vt 0.375000 0.750000
vt 0.625000 0.626758
vt 0.625000 0.626758
vt 0.625000 0.507812
vt 0.625000 0.507812
vt 1.000000 0.500000
vt 0.968750 0.500000
vt 0.968750 1.000000
vt 1.000000 1.000000
vt 0.937500 0.500000
vt 0.937500 1.000000
vt 0.906250 0.500000
vt 0.906250 1.000000
vt 0.875000 0.500000
vt 0.875000 1.000000
vt 0.843750 0.500000
vt 0.843750 1.000000
vt 0.812500 0.500000
vt 0.812500 1.000000
vt 0.781250 0.500000
vt 0.781250 1.000000
vt 0.750000 0.500000
vt 0.750000 1.000000
vt 0.718750 0.500000
vt 0.718750 1.000000
vt 0.687500 0.500000
vt 0.687500 1.000000
vt 0.656250 0.500000
vt 0.656250 1.000000
vt 0.625000 0.500000
vt 0.625000 1.000000
vt 0.593750 0.500000
vt 0.593750 1.000000
vt 0.562500 0.500000
vt 0.562500 1.000000
vt 0.531250 0.500000
vt 0.531250 1.000000
vt 0.500000 0.500000
vt 0.500000 1.000000
vt 0.468750 0.500000
vt 0.468750 1.000000
vt 0.437500 0.500000
vt 0.437500 1.000000
vt 0.406250 0.500000
vt 0.406250 1.000000
vt 0.375000 0.500000
vt 0.375000 1.000000
vt 0.343750 0.500000
vt 0.343750 1.000000
vt 0.312500 0.500000
vt 0.312500 1.000000
vt 0.281250 0.500000
vt 0.281250 1.000000
vt 0.250000 0.500000
vt 0.250000 1.000000
vt 0.218750 0.500000
vt 0.218750 1.000000
vt 0.187500 0.500000
vt 0.187500 1.000000
vt 0.156250 0.500000
vt 0.156250 1.000000
vt 0.125000 0.500000
vt 0.125000 1.000000
vt 0.093750 0.500000
vt 0.093750 1.000000
vt 0.062500 0.500000
vt 0.062500 1.000000
vt 0.031250 0.500000
vt 0.031250 1.000000
vt 0.000000 0.500000
vt 0.000000 1.000000
vt 0.625000 0.623242
vt 0.625000 0.625000
vt 0.625000 0.625000
vt 0.625000 0.623242
vt 0.625000 0.507813
vt 0.625000 0.623242
vt 0.383583 0.500000
vt 0.392755 0.500000
vt 0.374999 0.750001
vt 0.375000 0.745177
vt 0.375000 0.507813
vt 0.375000 0.504823
vt 0.619701 0.500000
vt 0.625001 0.499999
vt 0.625000 0.504823
vt 0.625000 0.626758
vt 0.625000 0.742187
vt 0.380299 0.750000
vt 0.616417 0.500000
vt 0.374999 0.499999
vt 0.380299 0.500000
vt 0.383583 0.750000
vt 0.375000 0.742187
vt 0.625000 0.745177
vt 0.625001 0.750001
vt 0.619701 0.750000
vt 0.616417 0.750000
vt 0.625000 0.625000
vt 0.624347 0.745177
vt 0.622487 0.747712
vt 0.619702 0.749405
vt 0.380298 0.749405
vt 0.377514 0.747712
vt 0.375653 0.745177
vt 0.375653 0.504823
vt 0.377514 0.502288
vt 0.380298 0.500595
vt 0.619702 0.500595
vt 0.622486 0.502288
vt 0.624347 0.504823
vt 0.937500 0.500000
vt 0.906250 0.500000
vt 0.656250 0.500000
vt 0.625000 0.500000
vt 0.375000 0.500000
vt 0.343750 0.500000
vt 0.093750 0.500000
vt 0.062500 0.500000
vt 0.781250 0.500000
vt 0.750000 0.500000
vt 0.500000 0.500000
vt 0.468750 0.500000
vt 0.218750 0.500000
vt 0.187500 0.500000
vt 0.875000 0.500000
vt 0.593750 0.500000
vt 0.312500 0.500000
vt 0.031250 0.500000
vt 0.718750 0.500000
vt 0.437500 0.500000
vt 0.156250 0.500000
vt 0.843750 0.500000
vt 0.562500 0.500000
vt 0.281250 0.500000
vt 1.000000 0.500000
vt 0.968750 0.500000
vt 0.000000 0.500000
vt 0.687500 0.500000
vt 0.406250 0.500000
vt 0.125000 0.500000
vt 0.812500 0.500000
vt 0.531250 0.500000
vt 0.250000 0.500000
vt 0.750000 0.490000
vt 0.703178 0.485388
vt 0.658156 0.471731
vt 0.616663 0.449553
vt 0.580294 0.419706
vt 0.550447 0.383337
vt 0.528269 0.341844
vt 0.514612 0.296822
vt 0.510000 0.250000
vt 0.514612 0.203178
vt 0.528269 0.158156
vt 0.550447 0.116663
vt 0.580294 0.080294
vt 0.616663 0.050447
vt 0.658156 0.028269
vt 0.703178 0.014612
vt 0.750000 0.010000
vt 0.796822 0.014612
vt 0.841844 0.028269
vt 0.883337 0.050447
vt 0.919706 0.080294
vt 0.949553 0.116663
vt 0.971731 0.158156
vt 0.985388 0.203178
vt 0.990000 0.250000
vt 0.985388 0.296822
vt 0.971731 0.341844
vt 0.949553 0.383337
vt 0.919706 0.419706
vt 0.883337 0.449553
vt 0.841844 0.471731
vt 0.796822 0.485388
vt 0.625000 0.007812
vt 0.625000 0.123242
vt 0.625000 0.125000
vt 0.625000 0.126758
vt 0.625000 0.242188
vt 0.624347 0.245177
vt 0.622487 0.247712
vt 0.619702 0.249405
vt 0.616418 0.000000
vt 0.619702 0.000595
vt 0.622486 0.002288
vt 0.624347 0.004823
vt 0.487157 0.843750
vt 0.487157 0.812500
vt 0.512560 0.812500
vt 0.512560 0.843750
vt 0.487157 0.906250
vt 0.487157 0.875000
vt 0.512560 0.875000
vt 0.512560 0.906250
vt 0.487157 0.937500
vt 0.512560 0.937500
vt 0.532034 0.875000
vt 0.532034 0.843750
vt 0.590454 0.843750
vt 0.590454 0.875000
vt 0.532034 0.906250
vt 0.590454 0.906250
vt 0.409476 0.875000
vt 0.467737 0.875000
vt 0.467737 0.906250
vt 0.409476 0.906250
vt 0.409476 0.843750
vt 0.467737 0.843750
vt 0.383582 0.312500
vt 0.392755 0.312500
vt 0.392755 0.343750
vt 0.383582 0.343750
vt 0.383582 0.375000
vt 0.392755 0.375000
vt 0.392755 0.406250
vt 0.383582 0.406250
vt 0.392755 0.437500
vt 0.383582 0.437500
vt 0.512560 0.843750
vt 0.512560 0.875000
vt 0.512560 0.937500
vt 0.487157 0.937500
vt 0.487157 0.843750
vt 0.487157 0.812500
vt 0.512560 0.812500
vt 0.512560 0.906250
vt 0.487157 0.906250
vt 0.487157 0.875000
vn 0.8546 0.5183 0.0309
vn 0.8915 0.4368 0.1201
vn 0.9762 0.2105 0.0519
vn 0.9715 0.2367 0.0092
vn 0.9097 0.0547 -0.4115
vn 0.9263 0.1852 -0.3282
vn 0.9795 0.0912 -0.1794
vn 0.9744 0.0186 -0.2240
vn 0.8546 -0.5183 0.0309
vn 0.8546 -0.5183 -0.0309
vn 0.9715 -0.2367 -0.0092
vn 0.9715 -0.2367 0.0092
vn 0.9202 -0.3199 0.2254
vn 0.8915 -0.4368 0.1201
vn 0.9762 -0.2105 0.0519
vn 0.9811 -0.1586 0.1106
vn -0.6162 -0.7858 0.0530
vn -0.7321 -0.6806 0.0286
vn -0.7321 -0.6806 -0.0286
vn -0.6162 -0.7858 -0.0530
vn 0.8880 0.0000 -0.4598
vn 0.9027 0.0702 -0.4246
vn 0.8957 0.0000 -0.4446
vn 0.8915 -0.4368 -0.1201
vn 0.9762 -0.2105 -0.0519
vn 0.9097 -0.0547 0.4115
vn 0.9263 -0.1852 0.3282
vn 0.9795 -0.0912 0.1794
vn 0.9744 -0.0186 0.2240
vn 0.8915 0.4368 -0.1201
vn 0.8546 0.5183 -0.0309
vn 0.9715 0.2367 -0.0092
vn 0.9762 0.2105 -0.0519
vn 0.9755 0.0000 -0.2200
vn 0.9263 0.1852 0.3282
vn 0.9097 0.0547 0.4115
vn 0.9744 0.0186 0.2240
vn 0.9795 0.0912 0.1794
vn 0.9202 0.3199 0.2254
vn 0.9811 0.1586 0.1106
vn 0.9202 -0.3199 -0.2254
vn 0.9263 -0.1852 -0.3282
vn 0.9795 -0.0912 -0.1794
vn 0.9811 -0.1586 -0.1106
vn 0.9202 0.3199 -0.2254
vn 0.9811 0.1586 -0.1106
vn 0.8412 0.5408 0.0000
vn 0.9721 0.2346 0.0000
vn 0.9097 -0.0547 -0.4115
vn 0.9744 -0.0186 -0.2240
vn -0.7164 -0.0933 0.6914
vn -0.7164 0.0933 0.6914
vn -0.7882 0.0570 0.6128
vn -0.7674 0.0000 0.6412
vn -0.7882 -0.0570 0.6128
vn -0.7862 -0.5995 -0.1502
vn -0.6801 -0.7041 -0.2043
vn -0.8318 -0.4554 -0.3172
vn -0.7363 -0.5497 -0.3947
vn -0.8341 -0.2553 -0.4890
vn -0.7225 -0.3138 -0.6161
vn -0.7882 -0.0570 -0.6128
vn -0.6764 -0.1146 -0.7276
vn 0.8227 0.5654 -0.0595
vn 0.8759 0.4535 -0.1645
vn 0.9065 0.3313 -0.2616
vn 0.9151 0.1987 -0.3509
vn 0.8227 -0.5654 0.0595
vn 0.8759 -0.4535 0.1645
vn 0.9065 -0.3313 0.2616
vn 0.9151 -0.1987 0.3509
vn 0.9027 -0.0702 0.4246
vn -0.6162 0.7858 0.0530
vn -0.7321 0.6806 0.0286
vn -0.7862 0.5995 0.1502
vn -0.6801 0.7041 0.2043
vn -0.8318 0.4554 0.3172
vn -0.7363 0.5497 0.3947
vn -0.8341 0.2553 0.4890
vn -0.7491 0.3249 0.5773
vn 0.7843 0.6203 0.0000
vn 0.0000 1.0000 0.0000
vn 0.0000 0.9975 -0.0710
vn 0.0000 0.4875 0.8731
vn 0.0000 0.1345 0.9909
vn 0.0000 0.8051 0.5932
vn 0.0000 0.9568 0.2907
vn 0.0000 0.9975 0.0710
vn 0.0000 -0.4875 0.8731
vn 0.0000 -0.1345 0.9909
vn 0.0000 -0.8051 0.5932
vn 0.0000 -0.9568 0.2907
vn 0.0000 -0.9975 0.0710
vn 0.0000 0.4875 -0.8731
vn -0.0000 0.1345 -0.9909
vn 0.0000 0.8051 -0.5932
vn 0.0000 0.9568 -0.2907
vn 0.0588 -0.1624 -0.9850
vn 0.0016 -0.1770 -0.9842
vn 0.0018 -0.1770 -0.9842
vn 0.0685 -0.1577 -0.9851
vn 0.0000 -0.8051 -0.5932
vn 0.0000 -0.6807 -0.7326
vn 0.0000 -0.9568 -0.2907
vn 0.0000 -0.9975 -0.0710
vn 0.0000 0.0000 1.0000
vn -0.0000 0.0000 -1.0000
vn -0.2322 -0.1714 -0.9574
vn -0.0723 -0.1617 -0.9842
vn -0.0064 -0.0437 -0.9990
vn -0.2062 -0.1523 -0.9666
vn 0.9151 0.1987 0.3509
vn 0.9027 0.0702 0.4246
vn 0.9065 0.3313 0.2616
vn 0.8759 0.4535 0.1645
vn 0.8227 0.5654 0.0595
vn 0.9151 -0.1987 -0.3509
vn 0.9027 -0.0702 -0.4246
vn 0.9065 -0.3313 -0.2616
vn 0.8759 -0.4535 -0.1645
vn 0.8227 -0.5654 -0.0595
vn -0.6917 0.0000 -0.7221
vn -0.7164 0.0932 -0.6914
vn -0.6379 0.1200 -0.7607
vn -0.6076 0.0000 -0.7942
vn -0.6162 0.7858 -0.0530
vn -0.2521 0.9645 -0.0791
vn -0.5798 0.7698 -0.2669
vn -0.6801 0.7041 -0.2043
vn -0.6469 0.6024 -0.4676
vn -0.7363 0.5497 -0.3947
vn -0.6685 0.3656 -0.6476
vn -0.7491 0.3249 -0.5773
vn -0.2521 -0.9645 0.0791
vn -0.5798 -0.7698 0.2669
vn -0.6801 -0.7041 0.2043
vn -0.6469 -0.6024 0.4676
vn -0.7363 -0.5497 0.3947
vn -0.6685 -0.3656 0.6476
vn -0.7491 -0.3249 0.5773
vn -0.6379 -0.1200 0.7607
vn -0.5907 0.8069 0.0000
vn -0.2301 0.9732 0.0000
vn -0.2521 0.9645 0.0791
vn -0.0524 -0.1624 -0.9853
vn -0.4389 -0.2892 -0.8507
vn -0.5064 -0.0503 -0.8608
vn -0.0604 -0.1581 -0.9856
vn -0.2521 -0.9645 -0.0791
vn -0.7170 0.6970 0.0000
vn -0.7321 0.6806 -0.0286
vn -0.8341 -0.2553 0.4890
vn -0.8318 -0.4554 0.3172
vn -0.7862 -0.5995 0.1502
vn -0.8341 0.2553 -0.4890
vn -0.7882 0.0570 -0.6128
vn -0.8318 0.4554 -0.3172
vn -0.7862 0.5995 -0.1502
vn -0.7674 0.0000 -0.6412
vn -0.6685 0.3656 0.6476
vn -0.6379 0.1200 0.7607
vn -0.6469 0.6024 0.4676
vn -0.5798 0.7698 0.2669
vn -0.6469 -0.6024 -0.4676
vn -0.5798 -0.7698 -0.2669
vn -0.6076 0.0000 0.7942
vn -1.0000 -0.0000 0.0000
vn 0.0000 -0.1951 -0.9808
vn 0.0000 -0.3827 -0.9239
vn 0.0000 -0.5556 -0.8315
vn 0.0000 -0.7071 -0.7071
vn 0.0000 -0.8315 -0.5556
vn 0.0000 -0.9239 -0.3827
vn 0.0000 -0.9808 -0.1951
vn 0.0000 -1.0000 0.0000
vn 0.0000 -0.9808 0.1951
vn 0.0000 -0.9239 0.3827
vn 0.0000 -0.8315 0.5556
vn 0.0000 -0.7071 0.7071
vn 0.0000 -0.5556 0.8315
vn 0.0000 -0.3827 0.9239
vn 0.0000 -0.1951 0.9808
vn 0.0000 0.1951 0.9808
vn 0.0000 0.3827 0.9239
vn 0.0000 0.5556 0.8315
vn 0.0000 0.7071 0.7071
vn 0.0000 0.8315 0.5556
vn 0.0000 0.9239 0.3827
vn 0.0000 0.9808 0.1951
vn 0.0000 0.9808 -0.1951
vn 0.0000 0.9239 -0.3827
vn 0.0000 0.8315 -0.5556
vn 0.0000 0.7071 -0.7071
vn 0.0000 0.5556 -0.8315
vn 0.0000 0.3827 -0.9239
vn 1.0000 0.0000 0.0000
vn 0.0000 0.1951 -0.9808
vn -0.7071 0.0000 0.7071
vn -0.8660 0.0000 0.5000
vn -0.9659 0.0000 -0.2588
vn -0.8660 0.0000 -0.5000
vn -0.5000 0.0000 -0.8660
vn -0.2588 0.0000 -0.9659
vn 0.5000 0.0000 -0.8660
vn 0.7071 0.0000 -0.7071
vn 0.8660 0.0000 -0.5000
vn 0.8660 0.0000 0.5000
vn 0.7071 0.0000 0.7071
vn 0.2588 0.0000 0.9659
vn -0.5000 0.0000 0.8660
vn 0.2588 0.0000 -0.9659
vn 0.9659 0.0000 -0.2588
vn 0.9659 0.0000 0.2588
vn 0.5000 0.0000 0.8660
vn -0.2588 0.0000 0.9659
vn -0.2807 -0.9598 0.0000
vn -0.8839 0.4678 0.0000
vn -0.9705 0.2410 0.0000
vn -0.9705 -0.2410 0.0000
vn 0.8433 -0.5374 0.0000
vn 0.2519 0.9678 0.0000
vn -0.2807 0.9598 0.0000
vn -0.8839 -0.4678 0.0000
vn 0.8433 0.5374 0.0000
vn 0.2519 -0.9678 0.0000
vn -0.3526 -0.9358 0.0000
vn -0.8333 0.5528 0.0000
vn 0.8018 -0.5977 0.0000
vn 0.3179 0.9481 0.0000
vn -0.3526 0.9358 0.0000
vn -0.8333 -0.5528 0.0000
vn 0.8018 0.5977 0.0000
vn 0.3179 -0.9481 0.0000
vn -0.4036 -0.9149 0.0000
vn 0.3663 -0.9305 0.0000
vn 0.3654 -0.9309 0.0000
vn 0.3663 0.9305 0.0000
vn -0.4036 0.9149 0.0000
vn -0.4045 0.9145 0.0000
vn -0.4045 -0.9145 0.0000
vn 0.3654 0.9308 0.0000
vn 0.7331 -0.6801 0.0000
vn -0.3038 0.9528 0.0000
vn -0.7711 0.6367 0.0000
vn 0.2730 -0.9620 0.0000
vn -0.7711 -0.6367 0.0000
vn 0.7331 0.6801 0.0000
vn 0.2730 0.9620 0.0000
vn -0.3038 -0.9528 0.0000
usemtl Material.001
s 1
f 46/1/1 48/2/2 5/3/3 4/4/4
f 56/5/5 58/6/6 12/7/7 11/8/8
f 42/9/9 51/10/10 19/11/11 10/12/12
f 44/13/13 45/14/14 9/15/15 8/16/16
f 176/17/17 21/18/18 32/19/19 161/20/20
f 470/21/21 135/22/22 56/5/5 466/23/23
f 51/10/10 53/24/24 20/25/25 19/11/11
f 41/26/26 43/27/27 7/28/28 6/29/29
f 60/30/30 57/31/31 15/32/32 14/33/33
f 466/23/23 56/5/5 11/8/8 465/34/34
f 50/35/35 47/36/36 1/37/37 2/38/38
f 43/27/27 44/13/13 8/16/16 7/28/28
f 45/14/14 42/9/9 10/12/12 9/15/15
f 48/2/2 49/39/39 3/40/40 5/3/3
f 47/36/36 41/26/26 6/29/29 1/37/37
f 54/41/41 55/42/42 17/43/43 18/44/44
f 58/6/6 59/45/45 13/46/46 12/7/7
f 556/47/47 46/1/1 4/4/4 555/48/48
f 55/42/42 52/49/49 16/50/50 17/43/43
f 169/51/51 180/52/52 26/53/53 341/54/54 22/55/55
f 59/45/45 60/30/30 14/33/33 13/46/46
f 53/24/24 54/41/41 18/44/44 20/25/25
f 49/39/39 50/35/35 2/38/38 3/40/40
f 161/20/20 32/19/19 35/56/56 171/57/57
f 171/57/57 35/56/56 34/58/58 172/59/59
f 172/60/59 34/61/58 33/62/60 173/63/61
f 173/63/61 33/62/60 31/64/62 174/65/63
f 125/66/64 57/31/31 60/30/30 132/67/65
f 132/67/65 60/30/30 59/45/45 133/68/66
f 133/69/66 59/45/45 58/6/6 134/70/67
f 134/70/67 58/6/6 56/5/5 135/22/22
f 126/71/68 42/9/9 45/14/14 136/72/69
f 136/72/69 45/14/14 44/13/13 137/73/70
f 137/74/70 44/13/13 43/27/27 138/75/71
f 138/75/71 43/27/27 41/26/26 139/76/72
f 170/77/73 27/78/74 30/79/75 177/80/76
f 177/80/76 30/79/75 29/81/77 178/82/78
f 178/83/78 29/84/77 28/85/79 179/86/80
f 179/86/80 28/85/79 26/53/53 180/52/52
f 550/87/81 545/88/47 57/31/31 125/66/64
f 554/89/82 548/90/82 86/91/83 391/92/83
f 379/93/84 99/94/84 100/95/85 380/96/85
f 378/97/86 98/98/86 99/94/84 379/93/84
f 377/99/87 97/100/87 98/101/86 378/102/86
f 370/103/88 96/104/88 97/100/87 377/99/87
f 404/105/89 94/106/89 95/107/90 405/108/90
f 403/109/91 93/110/91 94/106/89 404/105/89
f 402/111/92 92/112/92 93/113/91 403/114/91
f 392/115/93 91/116/93 92/112/92 402/111/92
f 400/117/94 89/118/94 90/119/95 401/120/95
f 399/121/96 88/122/96 89/118/94 400/117/94
f 398/123/97 87/124/97 88/125/96 399/126/96
f 391/92/83 86/91/83 87/124/97 398/123/97
f 373/127/98 84/128/99 85/129/100 374/130/101
f 372/131/102 83/132/102 84/128/103 373/127/103
f 371/133/104 82/134/104 83/135/102 372/136/102
f 361/137/105 81/138/105 82/134/104 371/133/104
f 451/139/106 382/140/106 348/141/106 448/142/106
f 474/143/107 401/120/95 90/119/95 468/144/107
f 376/145/93 91/116/93 81/138/105 361/137/105
f 126/71/93 106/146/93 111/147/105 131/148/105
f 139/76/90 130/149/85 110/150/85 434/151/106 439/152/106 344/153/106 347/154/106 449/155/106 444/156/106 119/157/90
f 131/148/105 111/147/105 101/158/104 121/159/104
f 121/159/104 101/158/104 102/160/102 122/161/102
f 122/162/102 102/163/102 103/164/103 123/165/103
f 123/165/108 103/164/109 104/166/110 124/167/111
f 140/168/88 120/169/88 107/170/87 127/171/87
f 127/171/87 107/170/87 108/172/86 128/173/86
f 128/174/86 108/175/86 109/176/84 129/177/84
f 129/177/84 109/176/84 110/150/85 130/149/85
f 553/178/82 549/179/82 105/180/83 375/181/83
f 368/182/89 118/183/89 119/157/90 369/184/90
f 367/185/91 117/186/91 118/183/89 368/182/89
f 366/187/92 116/188/92 117/189/91 367/190/91
f 376/145/93 106/146/93 116/188/92 366/187/92
f 364/191/94 114/192/94 115/193/95 365/194/95
f 363/195/96 113/196/96 114/192/94 364/191/94
f 362/197/97 112/198/97 113/199/96 363/200/96
f 375/181/83 105/180/83 112/198/97 362/197/97
f 473/201/107 365/194/95 115/193/95 469/202/107
f 50/35/35 129/177/112 130/149/113 47/36/36
f 49/39/39 128/174/114 129/177/112 50/35/35
f 48/2/2 127/171/115 128/173/114 49/39/39
f 46/1/1 140/168/116 127/171/115 48/2/2
f 55/42/42 123/165/117 124/167/118 52/49/49
f 54/41/41 122/162/119 123/165/117 55/42/42
f 53/24/24 121/159/120 122/161/119 54/41/41
f 51/10/10 131/148/121 121/159/120 53/24/24
f 41/26/26 47/36/36 130/149/113 139/76/72
f 42/9/9 126/71/68 131/148/121 51/10/10
f 549/179/82 550/87/82 125/66/83 105/180/83
f 118/183/89 138/75/89 139/76/90 119/157/90
f 117/186/91 137/74/91 138/75/89 118/183/89
f 116/188/92 136/72/92 137/73/91 117/189/91
f 106/146/93 126/71/93 136/72/92 116/188/92
f 114/192/94 134/70/94 135/22/95 115/193/95
f 113/196/96 133/69/96 134/70/94 114/192/94
f 112/198/97 132/67/97 133/68/96 113/199/96
f 105/180/83 125/66/83 132/67/97 112/198/97
f 469/202/107 115/193/95 135/22/95 470/21/107
f 472/203/122 165/204/123 145/205/124 471/206/125
f 175/207/126 155/208/127 142/209/128 162/210/129
f 162/210/129 142/209/128 143/211/130 163/212/131
f 163/213/131 143/214/130 144/215/132 164/216/133
f 164/216/133 144/215/132 145/205/124 165/204/123
f 176/17/17 156/217/134 146/218/135 166/219/136
f 166/219/136 146/218/135 147/220/137 167/221/138
f 167/222/138 147/223/137 148/224/139 168/225/140
f 168/225/140 148/224/139 149/226/141 169/51/51
f 552/227/142 551/228/143 155/208/127 175/207/126
f 395/229/84 159/230/84 160/231/85 396/232/85
f 394/233/86 158/234/86 159/230/84 395/229/84
f 393/235/87 157/236/87 158/237/86 394/238/86
f 406/239/88 150/240/144 157/236/87 393/235/87
f 389/241/145 153/242/146 154/243/147 390/244/148
f 388/245/102 152/246/102 153/242/103 389/241/103
f 387/247/104 151/248/104 152/249/102 388/250/102
f 397/251/105 141/252/149 151/248/104 387/247/104
f 452/253/106 408/254/106 346/255/106 450/256/106
f 392/115/93 156/217/134 141/252/149 397/251/105
f 546/257/150 552/227/142 175/207/126 36/258/151
f 25/259/152 168/225/140 169/51/51 22/55/55
f 24/260/153 167/222/138 168/225/140 25/259/152
f 23/261/154 166/219/136 167/221/138 24/262/153
f 21/18/18 176/17/17 166/219/136 23/261/154
f 40/263/155 164/216/133 165/204/123 37/264/156
f 39/265/157 163/213/131 164/216/133 40/263/155
f 38/266/158 162/210/129 163/212/131 39/267/157
f 36/258/151 175/207/126 162/210/129 38/266/158
f 31/64/62 342/268/159 37/264/156 165/204/123 472/203/122 174/65/63
f 159/230/160 179/86/80 180/52/52 160/231/161
f 158/234/162 178/83/78 179/86/80 159/230/160
f 157/236/163 177/80/76 178/82/78 158/237/162
f 150/240/144 170/77/73 177/80/76 157/236/163
f 153/242/146 173/63/61 174/65/63 154/243/147
f 152/246/164 172/60/59 173/63/61 153/242/146
f 151/248/165 171/57/57 172/59/59 152/249/164
f 141/252/149 161/20/20 171/57/57 151/248/165
f 149/226/141 445/269/166 450/256/166 346/255/166 343/270/166 438/271/166 433/272/166 160/231/161 180/52/52 169/51/51
f 156/217/134 176/17/17 161/20/20 141/252/149
f 184/273/167 186/274/167 188/275/167 190/276/167 192/277/167 194/278/167 196/279/167 198/280/167 200/281/167 202/282/167 204/283/167 206/284/167 208/285/167 210/286/167 212/287/167 214/288/167 216/289/167 218/290/167 220/291/167 222/292/167 224/293/167 226/294/167 228/295/167 230/296/167 232/297/167 234/298/167 236/299/167 238/300/167 240/301/167 242/302/167 244/303/167 182/304/167
f 245/305/107 248/306/107 247/307/168 246/308/168
f 246/308/168 247/307/168 250/309/169 249/310/169
f 249/310/169 250/309/169 252/311/170 251/312/170
f 251/312/170 252/311/170 254/313/171 253/314/171
f 253/314/171 254/313/171 256/315/172 255/316/172
f 255/316/172 256/315/172 258/317/173 257/318/173
f 257/318/173 258/317/173 260/319/174 259/320/174
f 259/320/174 260/319/174 262/321/175 261/322/175
f 261/322/175 262/321/175 264/323/176 263/324/176
f 263/324/176 264/323/176 266/325/177 265/326/177
f 265/326/177 266/325/177 268/327/178 267/328/178
f 267/328/178 268/327/178 270/329/179 269/330/179
f 269/330/179 270/329/179 272/331/180 271/332/180
f 271/332/180 272/331/180 274/333/181 273/334/181
f 273/334/181 274/333/181 276/335/182 275/336/182
f 275/336/182 276/335/182 278/337/106 277/338/106
f 277/338/106 278/337/106 280/339/183 279/340/183
f 279/340/183 280/339/183 282/341/184 281/342/184
f 281/342/184 282/341/184 284/343/185 283/344/185
f 283/344/185 284/343/185 286/345/186 285/346/186
f 285/346/186 286/345/186 288/347/187 287/348/187
f 287/348/187 288/347/187 290/349/188 289/350/188
f 289/350/188 290/349/188 292/351/189 291/352/189
f 291/352/189 292/351/189 294/353/82 293/354/82
f 293/354/82 294/353/82 296/355/190 295/356/190
f 295/356/190 296/355/190 298/357/191 297/358/191
f 297/358/191 298/357/191 300/359/192 299/360/192
f 299/360/192 300/359/192 302/361/193 301/362/193
f 301/362/193 302/361/193 304/363/194 303/364/194
f 303/364/194 304/363/194 306/365/195 305/366/195
f 247/367/196 248/368/196 308/369/196 306/370/196 304/371/196 302/372/196 300/373/196 298/374/196 296/375/196 294/376/196 292/377/196 290/378/196 288/379/196 286/380/196 284/381/196 282/382/196 280/383/196 278/384/196 276/385/196 274/386/196 272/387/196 270/388/196 268/389/196 266/390/196 264/391/196 262/392/196 260/393/196 258/394/196 256/395/196 254/396/196 252/397/196 250/398/196
f 305/366/195 306/365/195 308/399/197 307/400/197
f 307/400/197 308/399/197 248/401/107 245/402/107
f 245/403/167 246/404/167 249/405/167 251/406/167 253/407/167 255/408/167 257/409/167 259/410/167 261/411/167 263/412/167 265/413/167 267/414/167 269/415/167 271/416/167 273/417/167 275/418/167 277/419/167 279/420/167 281/421/167 283/422/167 285/423/167 287/424/167 289/425/167 291/426/167 293/427/167 295/428/167 297/429/167 299/430/167 301/431/167 303/432/167 305/433/167 307/434/167
f 341/435/167 342/268/167 31/64/167 33/436/167 34/437/167 35/438/167 32/439/167 21/440/167 23/441/167 24/442/167 25/443/167 22/444/167
f 436/445/106 434/151/106 110/150/85 380/96/85
f 437/446/106 435/447/106 100/95/85 396/232/85
f 382/140/106 347/154/106 353/448/106 384/449/106
f 381/450/106 345/451/106 350/452/106 383/453/106
f 347/154/106 344/153/106 349/454/106 353/448/106
f 407/455/106 343/270/106 351/456/106 409/457/106
f 408/254/106 348/141/106 354/458/106 410/459/106
f 343/270/106 346/255/106 352/460/106 351/456/106
f 344/153/106 381/450/106 383/453/106 349/454/106
f 348/141/106 382/140/106 384/449/106 354/458/106
f 435/447/106 436/445/106 380/96/85 100/95/85
f 468/144/107 90/119/95 365/194/95 473/201/107
f 86/91/83 375/181/83 362/197/97 87/124/97
f 87/124/97 362/197/97 363/200/96 88/125/96
f 88/122/96 363/195/96 364/191/94 89/118/94
f 89/118/94 364/191/94 365/194/95 90/119/95
f 91/116/93 376/145/93 366/187/92 92/112/92
f 92/112/92 366/187/92 367/190/91 93/113/91
f 93/110/91 367/185/91 368/182/89 94/106/89
f 94/106/89 368/182/89 369/184/90 95/107/90
f 548/90/82 553/178/82 375/181/83 86/91/83
f 106/146/93 376/145/93 361/137/105 111/147/105
f 449/155/106 347/154/106 382/140/106 451/139/106
f 111/147/105 361/137/105 371/133/104 101/158/104
f 101/158/104 371/133/104 372/136/102 102/160/102
f 102/163/102 372/131/102 373/127/103 103/164/103
f 103/164/109 373/127/98 374/130/101 104/166/110
f 120/169/88 370/103/88 377/99/87 107/170/87
f 107/170/87 377/99/87 378/102/86 108/172/86
f 108/175/86 378/97/86 379/93/84 109/176/84
f 109/176/84 379/93/84 380/96/85 110/150/85
f 346/255/106 408/254/106 410/459/106 352/460/106
f 345/451/106 407/455/106 409/457/106 350/452/106
f 433/272/106 437/446/106 396/232/85 160/231/85
f 91/116/93 392/115/93 397/251/105 81/138/105
f 448/142/106 348/141/106 408/254/106 452/253/106
f 81/138/105 397/251/105 387/247/104 82/134/104
f 82/134/104 387/247/104 388/250/102 83/135/102
f 83/132/102 388/245/102 389/241/103 84/128/103
f 84/128/99 389/241/145 390/244/148 85/129/100
f 96/104/88 406/239/88 393/235/87 97/100/87
f 97/100/87 393/235/87 394/238/86 98/101/86
f 98/98/86 394/233/86 395/229/84 99/94/84
f 99/94/84 395/229/84 396/232/85 100/95/85
f 471/206/107 145/205/95 401/120/95 474/143/107
f 155/208/127 391/92/83 398/123/97 142/209/97
f 142/209/97 398/123/97 399/126/96 143/211/96
f 143/214/96 399/121/96 400/117/94 144/215/94
f 144/215/94 400/117/94 401/120/95 145/205/95
f 156/217/134 392/115/93 402/111/92 146/218/92
f 146/218/92 402/111/92 403/114/91 147/220/91
f 147/223/91 403/109/91 404/105/89 148/224/89
f 148/224/89 404/105/89 405/108/90 149/226/90
f 551/228/143 554/89/82 391/92/83 155/208/127
f 420/461/106 431/462/106 421/463/106 422/464/106 432/465/106 424/466/106 428/467/106 423/468/106 419/469/106 427/470/106
f 438/271/106 442/471/106 437/446/106 433/272/106
f 441/472/106 439/152/106 434/151/106 436/445/106
f 381/450/106 344/153/106 439/152/106 441/472/106
f 407/455/106 345/451/106 440/473/106 442/471/106
f 345/451/106 381/450/106 441/472/106 440/473/106
f 343/270/106 407/455/106 442/471/106 438/271/106
f 95/107/90 443/474/106 447/475/106 405/108/90
f 119/157/90 444/156/106 446/476/106 369/184/90
f 405/108/90 447/475/106 445/269/106 149/226/90
f 369/184/90 446/476/106 443/474/106 95/107/90
f 444/156/106 449/155/106 451/139/106 446/476/106
f 447/475/106 452/253/106 450/256/106 445/269/106
f 174/65/63 472/203/122 471/206/125 154/243/147
f 104/166/110 469/202/107 470/21/107 124/167/111
f 52/49/49 466/23/23 465/34/34 16/50/50
f 124/167/118 470/21/21 466/23/23 52/49/49
f 485/477/198 486/478/198 488/479/199 487/480/199
f 487/480/167 488/479/167 490/481/200 489/482/200
f 489/482/200 490/481/200 492/483/201 491/484/201
f 491/484/202 492/483/202 494/485/203 493/486/203
f 493/486/203 494/485/203 496/487/107 495/488/107
f 495/488/204 496/487/204 498/489/205 497/490/205
f 497/490/205 498/489/205 500/491/206 499/492/206
f 499/492/196 500/491/196 502/493/196 501/494/196
f 501/494/207 502/493/207 504/495/208 503/496/208
f 503/496/208 504/495/208 506/497/209 505/498/209
f 488/499/82 486/500/82 508/501/82 506/502/82 504/503/82 502/504/82 500/505/82 498/506/82 496/507/82 494/508/82 492/509/82 490/510/82
f 505/498/209 506/497/209 508/511/106 507/512/106
f 507/512/210 508/511/210 486/513/198 485/514/198
f 485/515/175 487/516/175 489/517/175 491/518/175 493/519/175 495/520/175 497/521/175 499/522/175 501/523/175 503/524/175 505/525/175 507/526/175
f 509/527/199 510/528/199 512/529/199 511/530/199
f 511/530/167 512/529/167 514/531/167 513/532/167
f 513/532/201 514/531/201 516/533/201 515/534/201
f 515/534/202 516/533/202 518/535/203 517/536/203
f 517/536/203 518/535/203 520/537/211 519/538/211
f 519/538/211 520/537/211 522/539/204 521/540/204
f 521/540/206 522/539/206 524/541/212 523/542/212
f 523/542/212 524/541/212 526/543/213 525/544/213
f 525/544/213 526/543/213 528/545/207 527/546/207
f 527/546/214 528/545/214 530/547/209 529/548/209
f 512/549/82 510/550/82 532/551/82 530/552/82 528/553/82 526/554/82 524/555/82 522/556/82 520/557/82 518/558/82 516/559/82 514/560/82
f 529/548/209 530/547/209 532/561/215 531/562/215
f 531/562/215 532/561/215 510/563/210 509/564/210
f 509/565/175 511/566/175 513/567/175 515/568/175 517/569/175 519/570/175 521/571/175 523/572/175 525/573/175 527/574/175 529/575/175 531/576/175
f 562/577/143 565/578/82 543/579/82 540/580/143
f 559/581/82 564/582/82 542/583/82 537/584/82
f 557/585/150 563/586/142 541/587/142 535/588/150
f 563/586/142 562/577/143 540/580/143 541/587/142
f 560/589/82 561/590/82 539/591/82 538/592/82
f 564/582/82 560/589/82 538/592/82 542/583/82
f 565/578/82 559/581/82 537/584/82 543/579/82
f 561/590/81 556/47/47 534/593/47 539/591/81
f 545/88/47 534/593/47 533/594/48 544/595/48
f 57/31/31 545/88/47 544/595/48 15/32/32
f 540/580/143 543/579/82 554/89/82 551/228/143
f 537/584/82 542/583/82 553/178/82 548/90/82
f 535/588/150 541/587/142 552/227/142 546/257/150
f 541/587/142 540/580/143 551/228/143 552/227/142
f 538/592/82 539/591/82 550/87/82 549/179/82
f 542/583/82 538/592/82 549/179/82 553/178/82
f 543/579/82 537/584/82 548/90/82 554/89/82
f 539/591/81 534/593/47 545/88/47 550/87/81
f 140/168/116 46/1/1 556/47/47 561/590/81
f 406/239/88 96/104/88 559/581/82 565/578/82
f 370/103/88 120/169/88 560/589/82 564/582/82
f 120/169/88 140/168/88 561/590/82 560/589/82
f 170/77/73 150/240/144 562/577/143 563/586/142
f 27/78/74 170/77/73 563/586/142 557/585/150
f 96/104/88 370/103/88 564/582/82 559/581/82
f 150/240/144 406/239/88 565/578/82 562/577/143
f 534/593/47 556/47/47 555/48/48 533/594/48
usemtl Material.002
f 567/596/196 566/597/196 67/598/196 68/599/196
f 569/600/196 568/601/196 62/602/196 74/603/196
f 570/604/196 567/596/196 68/599/196 69/605/196
f 571/606/196 570/604/196 69/605/196 70/607/196
f 572/608/196 571/606/196 70/607/196 71/609/196
f 574/610/196 573/611/196 80/612/196 76/613/196
f 575/614/196 572/608/196 71/609/196 65/615/196
f 577/616/196 576/617/196 64/618/196 77/619/196
f 568/601/196 578/620/196 61/621/196 62/602/196
f 580/622/196 579/623/196 78/624/196 79/625/196
f 566/597/196 581/626/196 72/627/196 67/598/196
f 579/623/196 577/616/196 77/619/196 78/624/196
f 586/628/196 582/629/196 63/630/196 467/631/196
f 582/629/196 583/632/196 75/633/196 63/630/196
f 581/626/196 584/634/196 73/635/196 72/627/196
f 589/636/196 575/614/196 65/615/196 558/637/196
f 573/611/196 585/638/196 66/639/196 80/612/196
f 583/632/196 574/610/196 76/613/196 75/633/196
f 578/620/196 580/622/196 79/625/196 61/621/196
f 584/634/196 569/600/196 74/603/196 73/635/196
f 181/640/106 183/641/183 184/642/183 182/643/106
f 183/641/183 185/644/184 186/645/184 184/642/183
f 185/644/184 187/646/185 188/647/185 186/645/184
f 187/646/185 189/648/186 190/649/186 188/647/185
f 189/648/186 191/650/187 192/651/187 190/649/186
f 191/650/187 193/652/188 194/653/188 192/651/187
f 193/652/188 195/654/189 196/655/189 194/653/188
f 195/654/189 197/656/82 198/657/82 196/655/189
f 197/656/82 199/658/190 200/659/190 198/657/82
f 199/658/190 201/660/191 202/661/191 200/659/190
f 201/660/191 203/662/192 204/663/192 202/661/191
f 203/662/192 205/664/193 206/665/193 204/663/192
f 205/664/193 207/666/194 208/667/194 206/665/193
f 207/666/194 209/668/195 210/669/195 208/667/194
f 209/668/195 211/670/197 212/671/197 210/669/195
f 211/670/197 213/672/107 214/673/107 212/671/197
f 213/672/107 215/674/168 216/675/168 214/673/107
f 215/674/168 217/676/169 218/677/169 216/675/168
f 217/676/169 219/678/170 220/679/170 218/677/169
f 219/678/170 221/680/171 222/681/171 220/679/170
f 221/680/171 223/682/172 224/683/172 222/681/171
f 223/682/172 225/684/173 226/685/173 224/683/172
f 225/684/173 227/686/174 228/687/174 226/685/173
f 227/686/174 229/688/175 230/689/175 228/687/174
f 229/688/175 231/690/176 232/691/176 230/689/175
f 231/690/176 233/692/177 234/693/177 232/691/176
f 233/692/177 235/694/178 236/695/178 234/693/177
f 235/694/178 237/696/179 238/697/179 236/695/178
f 237/696/179 239/698/180 240/699/180 238/697/179
f 239/698/180 241/700/181 242/701/181 240/699/180
f 241/700/181 243/702/182 244/703/182 242/701/181
f 243/702/182 181/704/106 182/705/106 244/703/182
f 576/617/196 586/628/196 467/631/196 64/618/196
f 588/706/196 587/707/196 536/708/196 547/709/196
f 585/638/196 588/706/196 547/709/196 66/639/196
f 587/707/196 589/636/196 558/637/196 536/708/196
f 599/710/196 612/711/196 588/706/196 585/638/196
f 603/712/196 610/713/196 586/628/196 576/617/196
f 609/714/196 591/715/196 569/600/196 584/634/196
f 604/716/196 598/717/196 580/622/196 578/620/196
f 608/718/196 595/719/196 574/610/196 583/632/196
f 602/720/196 599/710/196 585/638/196 573/611/196
f 613/721/196 596/722/196 575/614/196 589/636/196
f 606/723/196 609/714/196 584/634/196 581/626/196
f 607/724/196 608/718/196 583/632/196 582/629/196
f 610/713/196 607/724/196 582/629/196 586/628/196
f 605/725/196 597/726/196 577/616/196 579/623/196
f 600/727/196 606/723/196 581/626/196 566/597/196
f 598/717/196 605/725/196 579/623/196 580/622/196
f 601/728/196 604/716/196 578/620/196 568/601/196
f 597/726/196 603/712/196 576/617/196 577/616/196
f 596/722/196 594/729/196 572/608/196 575/614/196
f 595/719/196 602/720/196 573/611/196 574/610/196
f 594/729/196 593/730/196 571/606/196 572/608/196
f 593/730/196 592/731/196 570/604/196 571/606/196
f 592/731/196 590/732/196 567/596/196 570/604/196
f 591/715/196 601/728/196 568/601/196 569/600/196
f 590/732/196 600/727/196 566/597/196 567/596/196
f 1/37/37 6/29/29 600/727/196 590/732/196
f 9/15/15 10/12/12 601/728/196 591/715/196
f 2/38/38 1/37/37 590/732/196 592/731/196
f 3/40/40 2/38/38 592/731/196 593/730/196
f 5/3/3 3/40/40 593/730/196 594/729/196
f 13/46/46 14/33/33 602/720/196 595/719/196
f 4/4/4 5/3/3 594/729/196 596/722/196
f 17/43/43 16/50/50 603/712/196 597/726/196
f 10/12/12 19/11/11 604/716/196 601/728/196
f 20/25/25 18/44/44 605/725/196 598/717/196
f 6/29/29 7/28/28 606/723/196 600/727/196
f 18/44/44 17/43/43 597/726/196 605/725/196
f 465/34/34 11/8/8 607/724/196 610/713/196
f 11/8/8 12/7/7 608/718/196 607/724/196
f 7/28/28 8/16/16 609/714/196 606/723/196
f 555/48/48 4/4/4 596/722/196 613/721/196
f 14/33/33 15/32/32 599/710/196 602/720/196
f 12/7/7 13/46/46 595/719/196 608/718/196
f 19/11/11 20/25/25 598/717/196 604/716/196
f 8/16/16 9/15/15 591/715/196 609/714/196
f 16/50/50 465/34/34 610/713/196 603/712/196
f 544/595/48 533/594/48 611/733/196 612/711/196
f 15/32/32 544/595/48 612/711/196 599/710/196
f 533/594/48 555/48/48 613/721/196 611/733/196
usemtl Material.003
f 66/639/196 547/709/196 536/708/196 558/637/196 65/615/196 71/734/196 70/735/196 69/736/196 68/599/196 67/598/196 72/737/196 73/738/196 74/739/196 62/602/196 61/621/196 79/740/196 78/741/196 77/742/196 64/618/196 467/631/196 63/630/196 75/743/196 76/744/196 80/745/196
f 187/646/196 185/644/196 311/746/196 312/747/196
f 205/664/196 203/662/196 320/748/196 321/749/196
f 223/682/196 221/680/196 329/750/196 330/751/196
f 241/700/196 239/698/196 338/752/196 339/753/196
f 197/656/196 195/654/196 316/754/196 317/755/196
f 215/674/196 213/672/196 325/756/196 326/757/196
f 233/692/196 231/690/196 334/758/196 335/759/196
f 189/648/196 187/646/196 312/747/196 313/760/196
f 207/666/196 205/664/196 321/749/196 322/761/196
f 225/684/196 223/682/196 330/751/196 331/762/196
f 243/702/196 241/700/196 339/753/196 340/763/196
f 199/658/196 197/656/196 317/755/196 318/764/196
f 217/676/196 215/674/196 326/757/196 327/765/196
f 235/694/196 233/692/196 335/759/196 336/766/196
f 191/650/196 189/648/196 313/760/196 314/767/196
f 209/668/196 207/666/196 322/761/196 323/768/196
f 227/686/196 225/684/196 331/762/196 332/769/196
f 183/641/196 181/640/196 309/770/196 310/771/196
f 181/704/196 243/702/196 340/763/196 309/772/196
f 201/660/196 199/658/196 318/764/196 319/773/196
f 219/678/196 217/676/196 327/765/196 328/774/196
f 237/696/196 235/694/196 336/766/196 337/775/196
f 193/652/196 191/650/196 314/767/196 315/776/196
f 211/670/196 209/668/196 323/768/196 324/777/196
f 229/688/196 227/686/196 332/769/196 333/778/196
f 185/644/196 183/641/196 310/771/196 311/746/196
f 203/662/196 201/660/196 319/773/196 320/748/196
f 221/680/196 219/678/196 328/774/196 329/750/196
f 239/698/196 237/696/196 337/775/196 338/752/196
f 195/654/196 193/652/196 315/776/196 316/754/196
f 213/672/196 211/670/196 324/777/196 325/756/196
f 231/690/196 229/688/196 333/778/196 334/758/196
f 611/733/196 613/721/196 589/636/196 587/707/196
f 612/711/196 611/733/196 587/707/196 588/706/196
usemtl Material.005
f 309/779/196 340/780/196 339/781/196 338/782/196 337/783/196 336/784/196 335/785/196 334/786/196 333/787/196 332/788/196 331/789/196 330/790/196 329/791/196 328/792/196 327/793/196 326/794/196 325/795/196 324/796/196 323/797/196 322/798/196 321/799/196 320/800/196 319/801/196 318/802/196 317/803/196 316/804/196 315/805/196 314/806/196 313/807/196 312/808/196 311/809/196 310/810/196
usemtl Material.006
f 27/811/167 557/812/167 535/813/167 546/814/167 36/815/167 38/816/167 39/817/167 40/818/167 37/264/167 342/268/167 341/435/167 26/819/167 28/820/167 29/821/167 30/822/167
usemtl Material.007
f 386/823/106 359/824/106 355/825/106 385/826/106
f 412/827/106 360/828/106 356/829/106 411/830/106
f 360/828/106 386/823/106 385/826/106 356/829/106
f 358/831/106 412/827/106 411/830/106 357/832/106
f 458/833/106 453/834/106 454/835/106 457/836/106
f 455/837/106 458/833/106 457/836/106 456/838/106
f 460/839/106 459/840/106 463/841/106 464/842/106
f 462/843/106 461/844/106 459/840/106 460/839/106
f 482/845/107 481/846/107 484/847/107 475/848/107
f 476/849/107 477/850/107 483/851/107 478/852/107
f 478/852/107 483/851/107 480/853/107 479/854/107
f 475/848/107 484/847/107 477/850/107 476/849/107
usemtl Material.008
f 383/453/216 350/452/216 356/829/216 385/826/216
f 351/456/196 352/460/196 358/831/196 357/832/196
f 384/449/217 353/448/218 359/824/218 386/823/217
f 353/448/218 349/454/219 355/825/219 359/824/218
f 409/457/220 351/456/220 357/832/220 411/830/220
f 410/459/221 354/458/221 360/828/221 412/827/221
f 354/458/222 384/449/222 386/823/222 360/828/222
f 349/454/219 383/453/223 385/826/223 355/825/219
f 352/460/224 410/459/224 412/827/224 358/831/224
f 350/452/225 409/457/225 411/830/225 356/829/225
f 425/855/226 414/856/226 420/461/226 427/470/226
f 415/857/196 416/858/196 422/464/196 421/463/196
f 426/859/227 417/860/227 423/468/227 428/467/227
f 417/860/167 413/861/167 419/469/167 423/468/167
f 429/862/228 415/857/228 421/463/228 431/462/228
f 430/863/229 418/864/229 424/466/229 432/465/229
f 418/864/230 426/859/230 428/467/230 424/466/230
f 413/861/231 425/855/231 427/470/231 419/469/231
f 416/858/232 430/863/232 432/465/232 422/464/232
f 414/856/233 429/862/233 431/462/233 420/461/233
f 414/856/107 425/855/107 413/861/107 417/860/107 426/859/107 418/864/107 430/863/107 416/858/107 415/857/107 429/862/107
f 451/139/234 448/142/234 459/840/234 461/844/234
f 446/476/167 451/139/167 461/844/167 462/843/167
f 437/446/196 442/471/196 455/837/196 456/838/196
f 435/447/235 437/446/235 456/838/235 457/836/235
f 448/142/236 452/253/236 463/841/236 459/840/236
f 442/471/237 440/473/237 458/833/237 455/837/237
f 452/253/196 447/475/196 464/842/196 463/841/196
f 443/474/238 446/476/238 462/843/238 460/839/238
f 440/473/239 441/472/239 453/834/239 458/833/239
f 436/445/240 435/447/240 457/836/240 454/835/240
f 447/475/241 443/474/241 460/839/241 464/842/241
f 441/472/167 436/445/167 454/835/167 453/834/167
f 471/206/242 474/143/242 484/847/242 481/846/242
f 374/130/243 85/129/243 476/849/243 478/852/243
f 104/166/244 374/130/244 478/852/244 479/854/244
f 474/143/245 468/144/245 477/850/245 484/847/245
f 154/243/196 471/206/196 481/846/196 482/845/196
f 473/201/246 469/202/246 480/853/246 483/851/246
f 390/244/247 154/243/247 482/845/247 475/848/247
f 85/129/248 390/244/248 475/848/248 476/849/248
f 469/202/167 104/166/167 479/854/167 480/853/167
f 468/144/249 473/201/249 483/851/249 477/850/249
o Cube.001_Cube.002
v 0.032745 0.118931 -1.266106
v 0.032745 0.118931 1.386377
v 0.032745 1.796680 -1.309444
v 0.032745 0.148642 -1.309444
v 0.032745 1.826391 1.386377
v 0.032745 1.826391 -1.266106
v 0.032745 0.148642 1.429715
v 0.032745 1.796680 1.429715
v 0.032745 1.808050 1.426416
v 0.032745 1.817688 1.417021
v 0.032745 1.824129 1.402962
v 0.032745 0.137272 1.426416
v 0.032745 0.127633 1.417021
v 0.032745 0.121192 1.402962
v 0.032745 1.808050 -1.306145
v 0.032745 1.817688 -1.296751
v 0.032745 0.137272 -1.306145
v 0.032745 0.127633 -1.296751
v 0.032745 0.121192 -1.282691
v 0.032745 1.824129 -1.282691
vt 0.983867 0.999399
vt 0.016234 0.999399
vt 0.010209 0.998082
vt 0.005101 0.994333
vt 0.001688 0.988721
vt 0.000490 0.982101
vt 0.000490 0.017864
vt 0.001688 0.011244
vt 0.005101 0.005632
vt 0.010209 0.001883
vt 0.016234 0.000566
vt 0.983867 0.000566
vt 0.989891 0.001883
vt 0.994999 0.005632
vt 0.998412 0.011244
vt 0.999610 0.017864
vt 0.999610 0.982101
vt 0.998412 0.988721
vt 0.994999 0.994333
vt 0.989891 0.998082
vn 1.0000 -0.0000 0.0000
usemtl Material.004
s 1
f 619/865/250 618/866/250 624/867/250 623/868/250 622/869/250 621/870/250 620/871/250 625/872/250 626/873/250 627/874/250 615/875/250 614/876/250 632/877/250 631/878/250 630/879/250 617/880/250 616/881/250 628/882/250 629/883/250 633/884/250
