# Blender v2.80 (sub 74) OBJ File: 'mona-lisa.blend'
# www.blender.org
mtllib personal-mona-lisa.mtl
o Plane.001_Plane.002
v -10.001856 -8.970642 10.001856
v 10.001856 -8.970642 10.001856
v -10.001856 -8.970642 -10.001856
v 10.001856 -8.970642 -10.001856
vt 0.000000 0.000000
vt 1.000000 0.000000
vt 1.000000 1.000000
vt 0.000000 1.000000
vn 0.0000 1.0000 0.0000
usemtl Wood_Floor
s off
f 1/1/1 2/2/1 4/3/1 3/4/1
o Mona_Lisa,_by_Leonardo_da_Vinci,_from_C2RMF_retouched
v -1.994004 -2.955095 0.120370
v -1.978881 -2.970419 0.120535
v -1.979615 -2.957644 0.135467
v 1.978881 -2.970419 0.120535
v 1.994004 -2.955095 0.120370
v 1.979615 -2.957644 0.135467
v -1.994004 2.955095 0.120370
v -1.979615 2.957644 0.135467
v -1.978881 2.970419 0.120535
v 1.994004 2.955095 0.120370
v 1.978881 2.970419 0.120535
v 1.979615 2.957644 0.135467
v 1.991364 -2.946482 0.065382
v 1.976225 -2.961754 0.065217
v 1.975525 -2.944301 0.050285
v -1.976224 -2.961755 0.065218
v -1.991363 -2.946483 0.065382
v -1.975524 -2.944303 0.050285
v 1.991363 2.946483 0.065384
v 1.975524 2.944303 0.050287
v 1.976224 2.961756 0.065219
v -1.991364 2.946482 0.065384
v -1.976225 2.961754 0.065219
v -1.975525 2.944301 0.050287
vt 0.003789 0.002542
vt 0.670249 0.002542
vt 0.670249 0.997458
vt 0.003789 0.997458
vt 0.258388 0.051171
vt 0.275981 0.051171
vt 0.258381 0.051171
vt 0.275974 0.051171
vt 0.275974 0.863408
vt 0.258381 0.863408
vt 0.275981 0.863408
vt 0.258388 0.863408
vt 0.003796 0.002554
vt 0.672611 0.002554
vt 0.672611 0.997446
vt 0.003796 0.997446
vt 0.275959 0.053264
vt 0.258404 0.053267
vt 0.258404 0.861312
vt 0.275959 0.861315
vt 0.258403 0.053264
vt 0.258577 0.051171
vt 0.253584 0.053236
vt 0.275214 0.051171
vt 0.280676 0.051171
vt 0.258404 0.861315
vt 0.253584 0.861343
vt 0.258577 0.863408
vt 0.275785 0.863408
vt 0.280779 0.861343
vt 0.258125 0.051171
vt 0.253584 0.053245
vt 0.276704 0.051171
vt 0.280676 0.051171
vt 0.253584 0.861334
vt 0.258125 0.863408
vt 0.275959 0.861312
vt 0.276237 0.863408
vt 0.280779 0.861334
vt 0.253687 0.051171
vt 0.280779 0.053236
vt 0.253687 0.863408
vt 0.280676 0.863408
vt 0.253687 0.051171
vt 0.275959 0.053267
vt 0.280779 0.053245
vt 0.253687 0.863408
vt 0.280676 0.863408
vn 0.0000 -0.0000 1.0000
vn 0.0000 -0.9880 -0.1547
vn -0.0000 0.9880 -0.1547
vn -0.0000 0.0000 -1.0000
vn 0.9988 0.0000 -0.0480
vn -0.6228 -0.6094 0.4907
vn 0.6228 -0.6094 0.4907
vn -0.6228 0.6094 0.4907
vn 0.6228 0.6094 0.4907
vn 0.5444 -0.5326 -0.6481
vn -0.5444 -0.5326 -0.6481
vn 0.5444 0.5326 -0.6481
vn -0.5443 0.5326 -0.6481
vn -0.7239 -0.0000 0.6899
vn 0.0000 -0.7598 0.6501
vn 0.7239 -0.0000 0.6899
vn -0.0000 0.7598 0.6501
vn 0.6899 0.0000 -0.7239
vn 0.0000 -0.6501 -0.7599
vn -0.6899 -0.0000 -0.7239
vn -0.0000 0.6501 -0.7599
vn 0.7037 -0.6960 -0.1428
vn 0.7037 0.6960 -0.1428
vn -0.7037 0.6960 -0.1428
vn -0.7037 -0.6960 -0.1428
vn -0.9988 -0.0000 -0.0480
usemtl Mona_Lisa_Obverse
s off
f 7/5/2 10/6/2 16/7/2 12/8/2
usemtl Mona_Lisa_Reverse
f 6/9/3 20/10/3 18/11/3 8/12/3
f 15/13/4 25/14/4 27/15/4 13/16/4
f 19/17/5 22/18/5 28/19/5 24/20/5
f 9/21/6 17/22/6 23/23/6 14/24/6
f 5/25/7 6/26/7 7/27/7
f 8/12/8 9/28/8 10/29/8
f 11/30/9 12/31/9 13/32/9
f 14/24/10 15/33/10 16/34/10
f 17/22/11 18/35/11 19/36/11
f 20/10/12 21/37/12 22/38/12
f 23/23/13 24/39/13 25/40/13
f 26/41/14 27/42/14 28/43/14
f 11/30/15 5/25/15 7/27/15 12/31/15
f 6/9/16 8/12/16 10/29/16 7/44/16
f 9/21/17 14/24/17 16/34/17 10/45/17
f 15/13/18 13/16/18 12/46/18 16/47/18
f 23/23/19 17/22/19 19/36/19 24/39/19
f 18/11/20 20/10/20 22/38/20 19/48/20
f 21/49/21 26/41/21 28/43/21 22/50/21
f 27/15/22 25/14/22 24/51/22 28/52/22
f 8/12/23 18/11/23 17/22/23 9/21/23
f 14/24/24 23/23/24 25/14/24 15/13/24
f 13/16/25 27/15/25 26/41/25 11/30/25
f 5/25/26 21/49/26 20/10/26 6/9/26
f 11/30/27 26/41/27 21/49/27 5/25/27
o Plane_Plane.001
v -2.056318 -3.042043 0.423440
v -2.029951 -3.014539 0.381748
v -2.017390 -3.001346 0.266430
v -1.985277 -2.967681 0.117139
v -1.980085 -2.962473 -0.328653
v -2.675148 -3.689954 -0.329096
v -2.675273 -3.690024 -0.244017
v -2.648688 -3.662389 -0.239208
v -2.647597 -3.661335 -0.206412
v -2.673661 -3.688511 -0.200519
v -2.679001 -3.694275 -0.089455
v -2.802132 -3.822912 -0.087715
v -2.807048 -3.828149 -0.074072
v -2.801871 -3.822685 -0.030566
v -2.750035 -3.768507 0.028235
v -2.724505 -3.741496 0.103608
v -2.693377 -3.709188 0.107845
v -2.685704 -3.701091 0.160048
v -2.670239 -3.684915 0.199846
v -2.642696 -3.655695 0.228134
v -2.601872 -3.613383 0.222751
v -2.581066 -3.591558 0.199047
v -2.565279 -3.575018 0.157318
v -2.555097 -3.564272 0.103135
v -2.528463 -3.536607 0.098097
v -2.508072 -3.514969 0.047502
v -2.472075 -3.477464 0.048349
v -2.403906 -3.406047 0.051836
v -2.392690 -3.393898 0.055610
v -2.327331 -3.325891 0.073819
v -2.288941 -3.285691 0.106954
v -2.262457 -3.258010 0.148858
v -2.227724 -3.221432 0.222348
v -2.191671 -3.183967 0.231516
v -2.182969 -3.174767 0.286212
v -2.153119 -3.143514 0.303320
v -2.146232 -3.136270 0.357468
v -2.130327 -3.119614 0.403386
v -2.109627 -3.097951 0.425614
v -2.079694 -3.066588 0.436599
v 2.059878 -3.045847 0.425462
v 2.030842 -3.015470 0.388003
v 2.016621 -3.000556 0.266887
v 1.985498 -2.968123 0.118248
v 1.979920 -2.962216 -0.327737
v 2.675078 -3.689725 -0.329638
v 2.675195 -3.690092 -0.244007
v 2.648603 -3.662459 -0.239199
v 2.648224 -3.661883 -0.205043
v 2.673801 -3.688544 -0.200325
v 2.679052 -3.694246 -0.089411
v 2.801677 -3.822338 -0.087776
v 2.807134 -3.828270 -0.075315
v 2.801893 -3.822809 -0.030808
v 2.768976 -3.788295 0.001324
v 2.745077 -3.763271 0.040873
v 2.724981 -3.742069 0.103447
v 2.693289 -3.709267 0.107855
v 2.685715 -3.701137 0.159854
v 2.670911 -3.685599 0.198550
v 2.645377 -3.658822 0.226067
v 2.606344 -3.618443 0.225599
v 2.581291 -3.591768 0.199544
v 2.565226 -3.574983 0.157041
v 2.555110 -3.564334 0.103150
v 2.528677 -3.536819 0.098172
v 2.508225 -3.515138 0.047543
v 2.472088 -3.477448 0.048349
v 2.399859 -3.401819 0.053778
v 2.363328 -3.363573 0.056726
v 2.327946 -3.326497 0.073626
v 2.289232 -3.285996 0.107165
v 2.261199 -3.256671 0.150439
v 2.230441 -3.224399 0.221456
v 2.191913 -3.184291 0.231134
v 2.182997 -3.174786 0.286204
v 2.153241 -3.143588 0.303249
v 2.146171 -3.136199 0.357948
v 2.130085 -3.119385 0.403654
v 2.107851 -3.096077 0.427216
v 2.079571 -3.066523 0.436511
v 2.059714 3.036086 0.425365
v 2.030768 3.005783 0.387694
v 2.017465 2.991852 0.266682
v 1.989967 2.963153 0.255404
v 1.978896 2.951482 0.088885
v 1.980421 2.953222 -0.328608
v 2.675110 3.680326 -0.329251
v 2.675274 3.680442 -0.244016
v 2.648688 3.652807 -0.239208
v 2.648270 3.652674 -0.204552
v 2.673954 3.679253 -0.199796
v 2.679001 3.684693 -0.089455
v 2.805311 3.816576 -0.086713
v 2.802425 3.813740 -0.031409
v 2.769697 3.779468 0.000561
v 2.746435 3.755127 0.037069
v 2.724505 3.731914 0.103608
v 2.693377 3.699606 0.107846
v 2.685704 3.691508 0.160049
v 2.665620 3.670551 0.206446
v 2.629026 3.631333 0.229964
v 2.599807 3.601600 0.221080
v 2.573132 3.573572 0.185614
v 2.555035 3.554524 0.102831
v 2.528263 3.526786 0.097765
v 2.508072 3.505387 0.047503
v 2.472167 3.467967 0.048322
v 2.403921 3.396479 0.051831
v 2.392690 3.384316 0.055611
v 2.329425 3.318443 0.072722
v 2.289045 3.276218 0.106897
v 2.261230 3.247082 0.150087
v 2.231032 3.215385 0.220452
v 2.192296 3.175068 0.230723
v 2.183045 3.165210 0.286167
v 2.153119 3.133932 0.303320
v 2.146189 3.126651 0.357858
v 2.130125 3.109805 0.403629
v 2.107135 3.085703 0.428020
v 2.079686 3.057028 0.436563
v -2.059990 3.036414 0.425534
v -2.030912 3.005908 0.388326
v -2.017759 2.992148 0.266896
v -1.985377 2.958411 0.117836
v -1.980118 2.952875 -0.328695
v -2.675214 3.680321 -0.329060
v -2.675195 3.680510 -0.244007
v -2.648603 3.652877 -0.239199
v -2.648224 3.652301 -0.205042
v -2.673802 3.678960 -0.200325
v -2.679042 3.684650 -0.089453
v -2.801982 3.813319 -0.087730
v -2.807065 3.818590 -0.074329
v -2.801802 3.813147 -0.030544
v -2.750091 3.758886 0.028250
v -2.724033 3.731459 0.103749
v -2.693289 3.699685 0.107855
v -2.685715 3.691555 0.159853
v -2.670319 3.675416 0.199756
v -2.647371 3.651360 0.224158
v -2.623899 3.627577 0.229335
v -2.600057 3.601870 0.221240
v -2.573513 3.574002 0.186732
v -2.555183 3.554765 0.103172
v -2.528690 3.527342 0.098190
v -2.508229 3.505617 0.047551
v -2.471999 3.467783 0.048377
v -2.399789 3.392172 0.053800
v -2.363328 3.353991 0.056726
v -2.327185 3.316156 0.073934
v -2.289042 3.276218 0.106863
v -2.262487 3.248356 0.148899
v -2.227800 3.212016 0.221855
v -2.191784 3.174490 0.231352
v -2.183073 3.165227 0.286159
v -2.153241 3.134006 0.303250
v -2.146172 3.126617 0.357948
v -2.130084 3.109803 0.403658
v -2.108053 3.086672 0.427174
v -2.079578 3.056940 0.436514
vt 0.744328 0.706489
vt 1.424059 0.693553
vt 1.410674 0.706154
vt 0.757152 0.718808
vt 1.398944 0.718087
vt 1.378459 0.737771
vt 0.815431 0.769384
vt 1.346337 0.769381
vt 0.120372 0.090410
vt 2.056097 0.043518
vt 2.023453 0.078956
vt 0.183137 0.156064
vt 1.990913 0.121374
vt 1.861274 0.252267
vt 0.307629 0.289756
vt 1.892378 0.218255
vt 0.338418 0.317102
vt 1.832389 0.278786
vt 0.363593 0.342281
vt 1.807113 0.305585
vt 1.696776 0.421166
vt 0.465253 0.445516
vt 1.723590 0.391132
vt 0.514570 0.488413
vt 1.648825 0.467436
vt 1.627050 0.488481
vt 0.557238 0.526861
vt 1.606068 0.508001
vt 1.586868 0.527685
vt 0.594123 0.563883
vt 1.568539 0.547273
vt 0.611943 0.582405
vt 1.546638 0.570260
vt 0.629802 0.600197
vt 1.527355 0.586734
vt 0.680994 0.646129
vt 1.471028 0.646335
vt 1.455389 0.662991
vt 0.714245 0.679626
vt 1.439809 0.678965
vt 0.784310 0.742607
vt 0.790872 1.605995
vt 0.140347 2.289448
vt 0.035144 0.000237
vt 0.078390 0.047033
vt 0.152558 0.123646
vt 0.204424 2.214643
vt 0.331553 2.087331
vt 0.275673 0.257293
vt 0.361194 2.055545
vt 0.387797 2.029421
vt 0.411013 2.003722
vt 0.387361 0.368238
vt 0.435576 1.971123
vt 0.417447 0.401325
vt 0.445341 0.424378
vt 0.457487 1.949705
vt 0.553064 1.852333
vt 0.536999 0.508116
vt 0.592921 1.813130
vt 0.576214 0.545511
vt 0.652169 1.753827
vt 0.730575 1.667675
vt 0.698005 0.663485
vt 0.730008 0.693437
vt 1.392409 1.599885
vt 0.770912 1.628891
vt 1.366815 1.577214
vt 0.806104 1.593070
vt 0.840612 1.559149
vt 2.062551 2.279871
vt 0.105953 2.333690
vt 2.023998 2.235765
vt 0.174120 2.248238
vt 1.988214 2.200728
vt 0.239475 2.179947
vt 1.835482 2.030296
vt 1.757797 1.957556
vt 1.710497 1.908619
vt 0.483978 1.919781
vt 1.691044 1.887946
vt 1.642631 1.846037
vt 0.531485 1.873413
vt 1.600732 1.808440
vt 0.573884 1.832776
vt 1.564509 1.771845
vt 0.610881 1.794001
vt 0.631137 1.774089
vt 1.545458 1.750845
vt 1.438967 1.644352
vt 0.745390 1.653924
vt 1.424696 1.631569
vt 1.412015 1.619374
vt 1.951607 2.159995
vt 1.865255 2.062013
vt 1.805809 2.004132
vt 1.780898 1.981207
vt 1.620601 1.826775
vt 1.582119 1.790193
vt 1.530007 1.737140
vt 1.487315 1.690364
vt 1.470583 1.673931
vt 1.454363 1.658166
vt 2.095236 0.002553
vt 0.215700 0.189045
vt 1.923539 0.183157
vt 1.954392 0.152537
vt 0.242777 0.222600
vt 1.783479 0.331767
vt 1.754404 0.360134
vt 1.671866 0.446312
vt 0.491635 0.468370
vt 0.649064 0.616462
vt 1.487262 0.628782
vt 1.507224 0.608681
vt 0.667801 0.632216
vt 0.758942 1.641018
vt 0.273915 2.150087
vt 0.302548 2.120792
vt 0.508627 1.894612
vt 0.665806 1.738588
vt 0.681976 1.719891
vt 0.698436 1.701956
vt 0.714383 1.684357
vt 1.920898 2.128244
vt 1.895670 2.095873
vt 1.735103 1.933836
vt 1.665152 1.865622
vt 1.514669 1.717460
vt 1.500427 1.704002
vt 0.200020 1.422694
vt 0.256871 0.271633
vt 0.334971 1.250145
vt 0.182072 0.188879
vt 0.124914 1.474799
vt 0.107734 1.493697
vt 0.108857 0.115215
vt 0.083569 1.515968
vt 0.062732 1.542112
vt 0.036628 0.029492
vt 0.035578 1.568787
vt 1.060812 0.458796
vt 0.421130 0.517300
vt 0.325969 0.395826
vt 1.103528 0.388415
vt 1.352500 0.153331
vt 0.149727 0.153893
vt 1.450154 0.029493
vt 0.073066 0.068116
vt 1.133990 1.295701
vt 1.185845 0.213808
vt 1.408765 1.573325
vt 1.382226 0.116681
vt 1.379275 1.535344
vt 0.246518 0.235607
vt 0.171048 1.447496
vt 0.208491 0.217424
vt 0.144055 1.457886
vt 1.189103 0.184501
vt 1.332863 0.174002
vt 1.420884 0.068848
vt 0.401650 1.189184
vt 1.307403 1.488254
vt 1.268442 1.452345
vt 1.008790 1.176778
vt 1.351810 1.507588
vt 1.478043 1.667445
vt 1.445376 1.619676
vt 1.513796 1.704134
vn 0.3246 -0.3156 -0.8916
vn 0.0682 0.0592 -0.9959
vn -0.3439 -0.3348 -0.8772
vn 0.5890 -0.5805 -0.5622
vn -0.6180 -0.6111 -0.4946
vn -0.6897 -0.6898 -0.2204
vn 0.6986 -0.6959 -0.1661
vn -0.6983 -0.6954 -0.1697
vn -0.4458 0.4363 -0.7816
vn 0.6308 0.6308 -0.4518
vn 0.5183 0.5108 -0.6859
vn -0.4965 0.4901 -0.7164
vn 0.4907 0.4836 -0.7247
vn 0.2910 0.2760 -0.9160
vn -0.3146 0.3030 -0.8996
vn 0.5549 0.5512 -0.6230
vn 0.1144 -0.1157 -0.9866
vn -0.1684 -0.1671 -0.9714
vn 0.4967 -0.4837 -0.7206
vn -0.5119 -0.5027 -0.6965
vn -0.4528 -0.4435 -0.7735
vn 0.4526 -0.4435 -0.7736
vn -0.2597 -0.2579 -0.9306
vn -0.0382 0.0366 -0.9986
vn 0.0587 0.0583 -0.9966
vn 0.1574 0.1455 -0.9767
vn -0.2653 0.2571 -0.9292
vn 0.1984 0.1945 -0.9606
vn 0.4192 0.4098 -0.8101
vn -0.5508 0.5439 -0.6330
vn 0.5478 0.5413 -0.6378
vn -0.4740 0.4669 -0.7465
vn 0.4627 0.4541 -0.7613
vn -0.3426 0.3386 -0.8763
vn 0.3448 0.3408 -0.8746
vn -0.6735 0.6738 -0.3038
vn 0.6744 0.6745 -0.3003
vn 0.5703 0.5666 -0.5947
vn -0.3516 0.3409 -0.8719
vn 0.3584 0.3482 -0.8662
vn 0.6894 -0.6892 -0.2229
vn 0.5843 0.5872 -0.5601
vn -0.6369 -0.6392 -0.4310
vn -0.6934 0.6990 0.1750
vn -0.6226 0.6230 -0.4735
vn -0.5802 0.5739 -0.5778
vn -0.5712 -0.5648 -0.5956
vn -0.5120 -0.5074 -0.6931
vn -0.5607 0.5561 -0.6134
vn -0.1816 -0.1650 -0.9694
vn 0.2441 0.2428 -0.9388
vn 0.5703 0.5612 -0.5997
vn 0.6520 -0.6481 -0.3935
vn 0.5335 0.5295 -0.6596
vn 0.5426 -0.5394 -0.6440
vn 0.2593 -0.2572 -0.9309
vn 0.2601 0.2584 -0.9303
vn -0.1565 -0.1446 -0.9770
vn -0.0866 0.0853 -0.9926
vn -0.4137 -0.4047 -0.8155
vn -0.4176 0.4085 -0.8116
vn -0.3460 -0.3419 -0.8737
vn -0.3498 -0.3390 -0.8733
vn -0.5678 0.5642 -0.5994
vn -0.0552 0.0475 -0.9973
vn -0.6886 0.6904 -0.2219
vn 0.5922 0.5833 -0.5560
vn -0.6964 0.6973 -0.1699
vn 0.4128 0.4253 -0.8054
vn 0.7069 0.7057 -0.0469
vn 0.6984 -0.7010 0.1438
vn -0.5926 -0.5922 0.5460
vn 0.6303 -0.6313 -0.4518
vn -0.4412 -0.4321 -0.7865
vn 0.5178 -0.5092 -0.6875
vn -0.4936 -0.4866 -0.7208
vn 0.3404 -0.3290 -0.8808
vn -0.5668 0.5577 -0.6063
vn -0.2590 0.2575 -0.9309
vn 0.4533 0.4442 -0.7728
vn -0.4526 0.4432 -0.7738
vn 0.0381 -0.0366 -0.9986
vn -0.0588 -0.0584 -0.9966
vn 0.2644 -0.2566 -0.9296
vn -0.1940 -0.1901 -0.9624
vn 0.5478 -0.5404 -0.6386
vn -0.5523 -0.5452 -0.6305
vn -0.4768 -0.4696 -0.7430
vn 0.4628 -0.4550 -0.7607
vn 0.0550 -0.0473 -0.9973
vn -0.0492 -0.0418 -0.9979
vn -0.3235 0.3149 -0.8923
vn -0.5903 0.5807 -0.5607
vn 0.4884 -0.4819 -0.7275
vn 0.5588 -0.5545 -0.6166
vn 0.0418 -0.0396 -0.9983
vn -0.2556 0.2452 -0.9351
vn 0.0863 -0.0850 -0.9926
vn 0.4190 -0.4098 -0.8102
vn 0.3479 -0.3437 -0.8722
vn 0.6735 -0.6738 -0.3038
vn 0.5682 -0.5647 -0.5985
vn 0.3530 -0.3419 -0.8709
vn 0.6981 0.7027 0.1374
vn -0.3065 0.3052 -0.9016
vn 0.6670 0.6666 -0.3327
vn 0.3056 0.3039 -0.9023
vn -0.6678 0.6669 -0.3305
vn -0.6519 -0.6477 -0.3943
vn -0.5426 -0.5392 -0.6440
vn 0.0151 0.0146 -0.9998
vn -0.0175 0.0171 -0.9997
vn -0.5844 0.5821 -0.5653
vn 0.4549 0.4454 -0.7711
vn 0.5852 0.5834 -0.5632
vn -0.4544 0.4446 -0.7719
vn 0.3253 0.3165 -0.8910
vn -0.3056 -0.3038 -0.9023
vn -0.6625 -0.6620 -0.3504
vn -0.0149 -0.0144 -0.9998
vn -0.5832 -0.5808 -0.5679
vn -0.4549 -0.4458 -0.7709
vn -0.6739 -0.6741 -0.3023
vn -0.5681 -0.5643 -0.5990
vn 0.3045 -0.3034 -0.9029
vn 0.6675 -0.6666 -0.3318
vn -0.5332 0.5293 -0.6599
vn 0.0177 -0.0173 -0.9997
vn 0.5853 -0.5831 -0.5634
vn 0.4544 -0.4449 -0.7717
vn 0.5769 0.5771 0.5781
vn -0.5769 0.5758 0.5793
vn -0.3054 -0.3056 0.9018
vn -0.3748 0.3692 0.8504
vn 0.3950 0.3898 0.8319
vn 0.5854 0.5847 0.5616
vn -0.2906 0.2908 0.9116
vn 0.2906 0.2909 0.9115
vn 0.4706 0.4616 0.7519
vn 0.3067 -0.3063 0.9012
vn 0.3005 0.3006 0.9051
vn -0.3716 -0.3694 0.8517
vn -0.5819 0.5810 0.5690
vn -0.4464 0.4326 0.7833
vn -0.3051 0.3055 0.9020
vn -0.5767 -0.5769 0.5784
vn 0.5819 -0.5810 0.5690
vn -0.5825 -0.5817 0.5677
vn 0.3747 -0.3692 0.8504
vn -0.5939 0.5954 -0.5412
vn 0.5940 0.5943 -0.5420
vn -0.3634 0.3605 -0.8591
vn 0.3582 0.3540 -0.8639
vn -0.5942 -0.5945 -0.5418
vn -0.3666 -0.3611 -0.8574
vn -0.2944 -0.2942 0.9093
vn 0.5935 -0.5948 -0.5422
vn 0.5775 -0.5766 0.5780
vn 0.3634 -0.3604 -0.8590
vn 0.4643 -0.4588 0.7576
vn 0.2908 -0.2911 0.9114
usemtl Gold
s 1
f 69/53/28 68/54/29 29/55/30
f 70/56/31 29/55/30 30/57/32
f 70/56/31 30/57/32 31/58/33
f 72/59/34 31/58/33 32/60/35
f 83/61/36 42/62/37 43/63/38
f 85/64/39 43/63/38 44/65/40
f 48/66/41 89/67/42 47/68/43
f 90/69/44 48/66/41 49/70/45
f 91/71/46 49/70/45 50/72/47
f 54/73/48 95/74/49 53/75/50
f 97/76/51 56/77/52 57/78/53
f 99/79/54 58/80/55 59/81/56
f 101/82/57 59/81/56 60/83/58
f 102/84/59 60/83/58 61/85/60
f 103/86/61 61/85/60 62/87/62
f 106/88/63 65/89/64 66/90/65
f 108/91/66 67/92/67 68/54/29
f 71/93/68 112/94/69 70/56/31
f 112/94/69 71/93/68 72/59/34
f 123/95/70 81/96/71 82/97/72
f 84/98/73 125/99/74 83/61/36
f 125/99/74 84/98/73 85/64/39
f 129/100/75 88/101/76 89/67/42
f 130/102/77 89/67/42 90/69/44
f 131/103/78 90/69/44 91/71/46
f 132/104/79 91/71/46 92/105/80
f 133/106/81 93/107/82 94/108/83
f 134/109/84 94/108/83 95/74/49
f 138/110/85 97/76/51 98/111/86
f 140/112/87 99/79/54 100/113/88
f 140/112/87 100/113/88 101/82/57
f 143/114/89 102/84/59 103/86/61
f 148/115/90 107/116/91 108/91/66
f 109/117/92 148/115/90 108/91/66
f 152/118/93 111/119/94 112/94/69
f 153/120/95 113/121/96 114/122/97
f 162/123/98 122/124/99 123/95/70
f 163/125/100 123/95/70 124/126/101
f 164/127/102 124/126/101 125/99/74
f 164/127/102 125/99/74 126/128/103
f 169/129/104 129/100/75 130/102/77
f 132/104/79 172/130/105 131/103/78
f 134/109/84 174/131/106 133/106/81
f 135/132/107 175/133/108 134/109/84
f 177/134/109 137/135/110 138/110/85
f 179/136/111 139/137/112 140/112/87
f 181/138/113 141/139/114 142/140/115
f 182/141/116 142/140/115 143/114/89
f 189/142/117 148/115/90 149/143/118
f 68/54/29 189/142/117 150/144/119
f 151/145/120 29/55/30 150/144/119
f 152/118/93 30/57/32 151/145/120
f 153/120/95 31/58/33 152/118/93
f 165/146/121 44/65/40 164/127/102
f 47/68/43 168/147/122 169/129/104
f 48/66/41 169/129/104 170/148/123
f 49/70/45 170/148/123 171/149/124
f 53/75/50 174/131/106 175/133/108
f 57/78/53 177/134/109 178/150/125
f 59/81/56 180/151/126 181/138/113
f 183/152/127 62/87/62 182/141/116
f 66/90/65 186/153/128 187/154/129
f 188/155/130 66/90/65 187/154/129
f 68/54/29 188/155/130 189/142/117
f 69/53/28 109/117/92 68/54/29
f 29/55/30 70/56/31 69/53/28
f 71/93/68 70/56/31 31/58/33
f 31/58/33 72/59/34 71/93/68
f 42/62/37 81/96/71 41/156/131
f 44/65/40 86/157/132 85/64/39
f 83/61/36 82/97/72 42/62/37
f 84/98/73 83/61/36 43/63/38
f 43/63/38 85/64/39 84/98/73
f 46/158/133 86/157/132 45/159/134
f 47/68/43 87/160/135 46/158/133
f 91/71/46 51/161/136 92/105/80
f 89/67/42 88/101/76 47/68/43
f 90/69/44 89/67/42 48/66/41
f 91/71/46 90/69/44 49/70/45
f 52/162/137 92/105/80 51/161/136
f 53/75/50 93/107/82 52/162/137
f 55/163/138 95/74/49 54/73/48
f 53/75/50 95/74/49 94/108/83
f 56/77/52 96/164/139 55/163/138
f 98/111/86 58/80/55 99/79/54
f 98/111/86 97/76/51 57/78/53
f 62/87/62 104/165/140 103/86/61
f 100/113/88 99/79/54 59/81/56
f 101/82/57 100/113/88 59/81/56
f 102/84/59 101/82/57 60/83/58
f 103/86/61 102/84/59 61/85/60
f 64/166/141 104/165/140 63/167/142
f 64/166/141 106/88/63 105/168/143
f 66/90/65 108/91/66 107/116/91
f 107/116/91 106/88/63 66/90/65
f 69/53/28 149/143/118 109/117/92
f 109/117/92 108/91/66 68/54/29
f 110/169/144 70/56/31 111/119/94
f 112/94/69 111/119/94 70/56/31
f 113/121/96 112/94/69 72/59/34
f 72/59/34 114/122/97 113/121/96
f 123/95/70 83/61/36 124/126/101
f 81/96/71 123/95/70 122/124/99
f 85/64/39 127/170/145 126/128/103
f 83/61/36 125/99/74 124/126/101
f 126/128/103 125/99/74 85/64/39
f 87/160/135 127/170/145 86/157/132
f 87/160/135 129/100/75 128/171/146
f 92/105/80 133/106/81 132/104/79
f 130/102/77 129/100/75 89/67/42
f 90/69/44 131/103/78 130/102/77
f 132/104/79 131/103/78 91/71/46
f 96/164/139 135/132/107 95/74/49
f 134/109/84 133/106/81 94/108/83
f 135/132/107 134/109/84 95/74/49
f 96/164/139 137/135/110 136/172/147
f 98/111/86 139/137/112 138/110/85
f 138/110/85 137/135/110 97/76/51
f 102/84/59 141/139/114 101/82/57
f 140/112/87 139/137/112 99/79/54
f 141/139/114 140/112/87 101/82/57
f 103/86/61 144/173/148 143/114/89
f 143/114/89 142/140/115 102/84/59
f 105/168/143 144/173/148 104/165/140
f 145/174/149 106/88/63 146/175/150
f 106/88/63 147/176/151 146/175/150
f 149/143/118 150/144/119 189/142/117
f 148/115/90 147/176/151 107/116/91
f 149/143/118 148/115/90 109/117/92
f 110/169/144 151/145/120 150/144/119
f 113/121/96 152/118/93 112/94/69
f 111/119/94 152/118/93 151/145/120
f 126/128/103 166/177/152 165/146/121
f 163/125/100 162/123/98 123/95/70
f 164/127/102 163/125/100 124/126/101
f 165/146/121 164/127/102 126/128/103
f 128/171/146 166/177/152 127/170/145
f 129/100/75 167/178/153 128/171/146
f 131/103/78 170/148/123 130/102/77
f 129/100/75 169/129/104 168/147/122
f 130/102/77 170/148/123 169/129/104
f 132/104/79 173/179/154 172/130/105
f 172/130/105 171/149/124 131/103/78
f 136/172/147 175/133/108 135/132/107
f 174/131/106 173/179/154 133/106/81
f 175/133/108 174/131/106 134/109/84
f 176/180/155 137/135/110 177/134/109
f 178/150/125 139/137/112 179/136/111
f 178/150/125 177/134/109 138/110/85
f 180/151/126 141/139/114 181/138/113
f 140/112/87 180/151/126 179/136/111
f 144/173/148 183/152/127 143/114/89
f 182/141/116 181/138/113 142/140/115
f 183/152/127 182/141/116 143/114/89
f 145/174/149 184/181/156 144/173/148
f 145/174/149 186/153/128 185/182/157
f 146/175/150 187/154/129 186/153/128
f 148/115/90 187/154/129 147/176/151
f 189/142/117 188/155/130 148/115/90
f 29/55/30 68/54/29 150/144/119
f 30/57/32 29/55/30 151/145/120
f 31/58/33 30/57/32 152/118/93
f 32/60/35 31/58/33 153/120/95
f 162/123/98 42/62/37 41/156/131
f 164/127/102 42/62/37 163/125/100
f 165/146/121 45/159/134 44/65/40
f 44/65/40 43/63/38 164/127/102
f 167/178/153 45/159/134 166/177/152
f 167/178/153 47/68/43 46/158/133
f 171/149/124 50/72/47 49/70/45
f 48/66/41 47/68/43 169/129/104
f 49/70/45 48/66/41 170/148/123
f 51/161/136 173/179/154 52/162/137
f 51/161/136 50/72/47 172/130/105
f 173/179/154 53/75/50 52/162/137
f 176/180/155 54/73/48 175/133/108
f 54/73/48 53/75/50 175/133/108
f 176/180/155 56/77/52 55/163/138
f 178/150/125 58/80/55 57/78/53
f 57/78/53 56/77/52 177/134/109
f 179/136/111 59/81/56 58/80/55
f 182/141/116 60/83/58 181/138/113
f 60/83/58 59/81/56 181/138/113
f 62/87/62 184/181/156 63/167/142
f 62/87/62 61/85/60 182/141/116
f 184/181/156 64/166/141 63/167/142
f 64/166/141 186/153/128 65/89/64
f 186/153/128 66/90/65 65/89/64
f 67/92/67 66/90/65 188/155/130
f 68/54/29 67/92/67 188/155/130
f 42/62/37 82/97/72 81/96/71
f 44/65/40 45/159/134 86/157/132
f 46/158/133 87/160/135 86/157/132
f 47/68/43 88/101/76 87/160/135
f 91/71/46 50/72/47 51/161/136
f 52/162/137 93/107/82 92/105/80
f 53/75/50 94/108/83 93/107/82
f 55/163/138 96/164/139 95/74/49
f 56/77/52 97/76/51 96/164/139
f 98/111/86 57/78/53 58/80/55
f 62/87/62 63/167/142 104/165/140
f 64/166/141 105/168/143 104/165/140
f 64/166/141 65/89/64 106/88/63
f 66/90/65 67/92/67 108/91/66
f 69/53/28 110/169/144 149/143/118
f 110/169/144 69/53/28 70/56/31
f 123/95/70 82/97/72 83/61/36
f 85/64/39 86/157/132 127/170/145
f 87/160/135 128/171/146 127/170/145
f 87/160/135 88/101/76 129/100/75
f 92/105/80 93/107/82 133/106/81
f 96/164/139 136/172/147 135/132/107
f 96/164/139 97/76/51 137/135/110
f 98/111/86 99/79/54 139/137/112
f 102/84/59 142/140/115 141/139/114
f 103/86/61 104/165/140 144/173/148
f 105/168/143 145/174/149 144/173/148
f 145/174/149 105/168/143 106/88/63
f 106/88/63 107/116/91 147/176/151
f 149/143/118 110/169/144 150/144/119
f 110/169/144 111/119/94 151/145/120
f 113/121/96 153/120/95 152/118/93
f 126/128/103 127/170/145 166/177/152
f 128/171/146 167/178/153 166/177/152
f 129/100/75 168/147/122 167/178/153
f 131/103/78 171/149/124 170/148/123
f 132/104/79 133/106/81 173/179/154
f 136/172/147 176/180/155 175/133/108
f 176/180/155 136/172/147 137/135/110
f 178/150/125 138/110/85 139/137/112
f 180/151/126 140/112/87 141/139/114
f 144/173/148 184/181/156 183/152/127
f 145/174/149 185/182/157 184/181/156
f 145/174/149 146/175/150 186/153/128
f 146/175/150 147/176/151 187/154/129
f 148/115/90 188/155/130 187/154/129
f 162/123/98 163/125/100 42/62/37
f 164/127/102 43/63/38 42/62/37
f 165/146/121 166/177/152 45/159/134
f 167/178/153 46/158/133 45/159/134
f 167/178/153 168/147/122 47/68/43
f 171/149/124 172/130/105 50/72/47
f 51/161/136 172/130/105 173/179/154
f 173/179/154 174/131/106 53/75/50
f 176/180/155 55/163/138 54/73/48
f 176/180/155 177/134/109 56/77/52
f 178/150/125 179/136/111 58/80/55
f 179/136/111 180/151/126 59/81/56
f 182/141/116 61/85/60 60/83/58
f 62/87/62 183/152/127 184/181/156
f 184/181/156 185/182/157 64/166/141
f 64/166/141 185/182/157 186/153/128
usemtl Wood
f 34/183/158 74/184/159 33/185/160
f 77/186/161 37/187/162 38/188/163
f 79/189/164 39/190/165 40/191/166
f 81/192/71 40/191/166 41/193/131
f 114/194/97 72/195/34 73/196/167
f 74/184/159 115/197/168 73/196/167
f 119/198/169 77/186/161 78/199/170
f 122/200/99 79/189/164 80/201/171
f 122/200/99 80/201/171 81/192/71
f 115/197/168 154/202/172 114/194/97
f 154/202/172 115/197/168 116/203/173
f 159/204/174 119/198/169 120/205/175
f 38/188/163 158/206/176 159/204/174
f 34/183/158 75/207/177 74/184/159
f 74/184/159 73/196/167 33/185/160
f 35/208/178 76/209/179 75/207/177
f 37/187/162 76/209/179 36/210/180
f 38/188/163 79/189/164 78/199/170
f 78/199/170 77/186/161 38/188/163
f 80/201/171 79/189/164 40/191/166
f 81/192/71 80/201/171 40/191/166
f 74/184/159 117/211/181 116/203/173
f 115/197/168 114/194/97 73/196/167
f 116/203/173 115/197/168 74/184/159
f 75/207/177 118/212/182 117/211/181
f 77/186/161 118/212/182 76/209/179
f 78/199/170 121/213/183 120/205/175
f 120/205/175 119/198/169 78/199/170
f 122/200/99 121/213/183 79/189/164
f 32/214/35 73/196/167 72/195/34
f 116/203/173 156/215/184 155/216/185
f 154/202/172 153/217/95 114/194/97
f 155/216/185 154/202/172 116/203/173
f 117/211/181 157/218/186 156/215/184
f 119/198/169 157/218/186 118/212/182
f 121/213/183 159/204/174 120/205/175
f 159/204/174 158/206/176 119/198/169
f 121/213/183 161/219/187 160/220/188
f 122/200/99 162/221/98 161/219/187
f 154/202/172 32/214/35 153/217/95
f 155/216/185 33/185/160 154/202/172
f 155/216/185 35/208/178 34/183/158
f 156/215/184 36/210/180 35/208/178
f 157/218/186 37/187/162 36/210/180
f 160/220/188 38/188/163 159/204/174
f 38/188/163 37/187/162 158/206/176
f 160/220/188 40/191/166 39/190/165
f 161/219/187 41/193/131 40/191/166
f 34/183/158 35/208/178 75/207/177
f 35/208/178 36/210/180 76/209/179
f 37/187/162 77/186/161 76/209/179
f 38/188/163 39/190/165 79/189/164
f 74/184/159 75/207/177 117/211/181
f 75/207/177 76/209/179 118/212/182
f 77/186/161 119/198/169 118/212/182
f 78/199/170 79/189/164 121/213/183
f 32/214/35 33/185/160 73/196/167
f 116/203/173 117/211/181 156/215/184
f 117/211/181 118/212/182 157/218/186
f 119/198/169 158/206/176 157/218/186
f 121/213/183 160/220/188 159/204/174
f 121/213/183 122/200/99 161/219/187
f 154/202/172 33/185/160 32/214/35
f 155/216/185 34/183/158 33/185/160
f 155/216/185 156/215/184 35/208/178
f 156/215/184 157/218/186 36/210/180
f 157/218/186 158/206/176 37/187/162
f 160/220/188 39/190/165 38/188/163
f 160/220/188 161/219/187 40/191/166
f 161/219/187 162/221/98 41/193/131
