<?xml version="1.0"?>
<COLLADA xmlns="http://www.collada.org/2005/11/COLLADASchema" version="1.4.1">
	<asset>
		<contributor>
			<author>Assimp</author>
			<authoring_tool>Assimp Exporter</authoring_tool>
		</contributor>
		<created>2026-05-26T20:40:17</created>
		<modified>2026-05-26T20:40:17</modified>
		<unit name="meter" meter="0.010000" />
		<up_axis>Y_UP</up_axis>
	</asset>
	<library_effects>
		<effect id="RugBaseMaterial-fx" name="RugBaseMaterial">
			<profile_COMMON>
				<technique sid="standard">
					<phong>
						<diffuse>
							<color sid="diffuse">0.800000   0.800000   0.800000   1.000000</color>
						</diffuse>
					</phong>
				</technique>
			</profile_COMMON>
		</effect>
	</library_effects>
	<library_materials>
		<material id="RugBaseMaterial" name="RugBaseMaterial">
			<instance_effect url="#RugBaseMaterial-fx"/>
		</material>
	</library_materials>
	<library_geometries>
		<geometry id="meshId0" name="meshId0_name" >
			<mesh>
				<source id="meshId0-positions" name="meshId0-positions">
					<float_array id="meshId0-positions-array" count="168"> 
						-7.195899 0.061971 -2.140091 3.348355 0.061971 6.707565 7.181388 0.061971 2.139519 -3.362842 0.061971 -6.708137 -7.195899 0.061971 -2.140091 -3.362842 0.061971 -6.708137 -3.366431 0.041662 -6.749005 -7.236754 0.041662 -2.136519 7.222257 0.041662 2.135947 -3.366431 0.041662 -6.749005 -3.362842 0.061971 -6.708137 7.181388 0.061971 2.139519 3.351920 0.041662 6.748432 7.222257 0.041662 2.135947 7.181388 0.061971 2.139519 3.348355 0.061971 6.707565 -7.236754 0.041662 -2.136519 3.351920 0.041662 6.748432 3.348355 0.061971 6.707565 -7.195899 0.061971 -2.140091 -7.195899 -0.005909 -2.140091 -3.362865 -0.005909 -6.708137 7.181388 -0.005909 2.139519 3.348355 -0.005909 6.707565 -7.236754 0.041662 -2.136519 -3.366431 0.041662 -6.749005 -3.366431 0.014400 -6.749005 -7.236754 0.014400 -2.136519 -7.236754 0.041662 -2.136519 -7.236754 0.014400 -2.136519 3.351920 0.014400 6.748432 3.351920 0.041662 6.748432 -3.366431 0.041662 -6.749005 7.222257 0.041662 2.135947 7.222257 0.014400 2.135947 -3.366431 0.014400 -6.749005 3.351920 0.041662 6.748432 3.351920 0.014400 6.748432 7.222257 0.014400 2.135947 7.222257 0.041662 2.135947 -7.236754 0.014400 -2.136519 -3.366431 0.014400 -6.749005 -3.362865 -0.005909 -6.708137 -7.195899 -0.005909 -2.140091 -7.195899 -0.005909 -2.140091 3.348355 -0.005909 6.707565 3.351920 0.014400 6.748432 -7.236754 0.014400 -2.136519 7.181388 -0.005909 2.139519 -3.362865 -0.005909 -6.708137 -3.366431 0.014400 -6.749005 7.222257 0.014400 2.135947 3.348355 -0.005909 6.707565 7.181388 -0.005909 2.139519 7.222257 0.014400 2.135947 3.351920 0.014400 6.748432 
					</float_array>
					<technique_common>
						<accessor count="56" offset="0" source="#meshId0-positions-array" stride="3">
							<param name="X" type="float" />
							<param name="Y" type="float" />
							<param name="Z" type="float" />
						</accessor>
					</technique_common>
				</source>
				<source id="meshId0-normals" name="meshId0-normals">
					<float_array id="meshId0-normals-array" count="168"> 
						0.000000 1.000000 0.000000 0.000000 1.000000 0.000000 0.000000 1.000000 0.000000 0.000000 1.000000 0.000000 -0.439419 0.819121 -0.368717 -0.439242 0.819283 -0.368569 -0.439244 0.819282 -0.368568 -0.439419 0.819121 -0.368715 0.368681 0.819159 -0.439378 0.368738 0.819097 -0.439445 0.368738 0.819097 -0.439445 0.368681 0.819159 -0.439377 0.439437 0.819105 0.368731 0.439319 0.819212 0.368633 0.439320 0.819212 0.368632 0.439438 0.819104 0.368731 -0.368746 0.819088 0.439455 -0.368607 0.819240 0.439289 -0.368606 0.819241 0.439289 -0.368746 0.819088 0.439456 0.000000 -1.000000 0.000000 0.000000 -1.000000 0.000000 0.000000 -1.000000 0.000000 0.000000 -1.000000 0.000000 -0.766046 0.000000 -0.642786 -0.766046 0.000000 -0.642786 -0.766046 0.000000 -0.642786 -0.766046 0.000000 -0.642786 -0.642788 0.000000 0.766044 -0.642788 0.000000 0.766044 -0.642788 0.000000 0.766044 -0.642788 0.000000 0.766044 0.642787 0.000000 -0.766045 0.642787 0.000000 -0.766045 0.642787 0.000000 -0.766045 0.642787 0.000000 -0.766045 0.766044 0.000000 0.642788 0.766044 0.000000 0.642788 0.766044 0.000000 0.642788 0.766044 0.000000 0.642788 -0.439419 -0.819122 -0.368715 -0.439429 -0.819113 -0.368723 -0.439429 -0.819113 -0.368723 -0.439419 -0.819122 -0.368715 -0.368746 -0.819088 0.439455 -0.368606 -0.819241 0.439288 -0.368606 -0.819241 0.439288 -0.368746 -0.819089 0.439454 0.368681 -0.819159 -0.439378 0.368606 -0.819240 -0.439289 0.368607 -0.819240 -0.439289 0.368681 -0.819159 -0.439377 0.439437 -0.819105 0.368731 0.439319 -0.819213 0.368631 0.439319 -0.819212 0.368633 0.439436 -0.819105 0.368731 
					</float_array>
					<technique_common>
						<accessor count="56" offset="0" source="#meshId0-normals-array" stride="3">
							<param name="X" type="float" />
							<param name="Y" type="float" />
							<param name="Z" type="float" />
						</accessor>
					</technique_common>
				</source>
				<source id="meshId0-tangents" name="meshId0-tangents">
					<float_array id="meshId0-tangents-array" count="168"> 
						0.766045 0.000000 0.642787 0.766045 0.000000 0.642787 0.766045 0.000000 0.642787 0.766045 0.000000 0.642787 0.642789 0.000000 -0.766044 0.642788 -0.000001 -0.766044 0.642787 0.000001 -0.766045 0.642788 0.000001 -0.766044 -0.766045 -0.000000 -0.642787 -0.766045 -0.000000 -0.642787 -0.766045 0.000000 -0.642787 -0.766045 0.000000 -0.642787 0.642794 -0.000006 -0.766039 0.642795 -0.000006 -0.766038 0.642794 -0.000007 -0.766039 0.642794 -0.000007 -0.766039 0.766045 0.000000 0.642787 0.766045 0.000001 0.642787 0.766045 0.000000 0.642787 0.766045 -0.000000 0.642787 -0.766045 0.000000 -0.642787 -0.766045 0.000000 -0.642787 -0.766045 0.000000 -0.642787 -0.766045 0.000000 -0.642787 0.642786 0.000001 -0.766046 0.642786 0.000002 -0.766045 0.642786 0.000002 -0.766045 0.642786 0.000001 -0.766045 0.766044 0.000001 0.642788 0.766044 0.000001 0.642788 0.766045 0.000008 0.642788 0.766045 0.000008 0.642788 -0.766045 -0.000000 -0.642787 -0.766045 -0.000000 -0.642787 -0.766045 0.000000 -0.642787 -0.766045 -0.000000 -0.642787 0.642788 -0.000010 -0.766044 0.642788 -0.000010 -0.766044 0.642788 -0.000002 -0.766044 0.642788 -0.000002 -0.766044 0.642785 0.000001 -0.766046 0.642785 0.000002 -0.766047 0.642785 0.000002 -0.766047 0.642785 0.000001 -0.766046 0.766040 0.000005 0.642793 0.766041 0.000005 0.642792 0.766041 0.000004 0.642792 0.766040 0.000005 0.642793 -0.766045 -0.000000 -0.642787 -0.766045 0.000000 -0.642787 -0.766045 -0.000000 -0.642787 -0.766045 -0.000000 -0.642787 0.642786 0.000000 -0.766046 0.642786 -0.000000 -0.766046 0.642787 -0.000001 -0.766045 0.642787 -0.000001 -0.766045 
					</float_array>
					<technique_common>
						<accessor count="56" offset="0" source="#meshId0-tangents-array" stride="3">
							<param name="X" type="float" />
							<param name="Y" type="float" />
							<param name="Z" type="float" />
						</accessor>
					</technique_common>
				</source>
				<source id="meshId0-bitangents" name="meshId0-bitangents">
					<float_array id="meshId0-bitangents-array" count="168"> 
						0.642787 0.000000 -0.766045 0.642787 0.000000 -0.766045 0.642787 0.000000 -0.766045 0.642787 0.000000 -0.766045 -0.627482 -0.573621 -0.526521 -0.627607 -0.573390 -0.526625 -0.627606 -0.573391 -0.526624 -0.627483 -0.573620 -0.526522 -0.526545 0.573567 0.627512 -0.526505 0.573655 0.627465 -0.526505 0.573655 0.627465 -0.526545 0.573566 0.627513 -0.627464 0.573644 -0.526518 -0.627545 0.573491 -0.526588 -0.627546 0.573490 -0.526588 -0.627464 0.573645 -0.526518 0.526499 0.573667 -0.627459 0.526597 0.573450 -0.627575 0.526597 0.573450 -0.627575 0.526499 0.573668 -0.627458 0.642787 0.000000 -0.766045 0.642787 0.000000 -0.766045 0.642787 0.000000 -0.766045 0.642787 0.000000 -0.766045 0.000001 -1.000000 -0.000001 0.000001 -1.000000 -0.000001 0.000001 -1.000000 -0.000001 0.000001 -1.000000 -0.000001 -0.000001 1.000000 -0.000000 -0.000001 1.000000 -0.000000 -0.000006 1.000000 -0.000005 -0.000006 1.000000 -0.000005 -0.000000 1.000000 -0.000000 -0.000000 1.000000 -0.000000 0.000000 1.000000 0.000000 -0.000000 1.000000 -0.000000 0.000006 1.000000 -0.000008 0.000006 1.000000 -0.000008 0.000001 1.000000 -0.000001 0.000001 1.000000 -0.000001 0.627486 -0.573620 0.526519 0.627479 -0.573633 0.526512 0.627479 -0.573633 0.526512 0.627485 -0.573620 0.526519 -0.526506 0.573667 0.627453 -0.526604 0.573449 0.627570 -0.526604 0.573450 0.627570 -0.526506 0.573667 0.627453 0.526544 0.573566 -0.627513 0.526597 0.573451 -0.627575 0.526597 0.573451 -0.627575 0.526544 0.573566 -0.627513 0.627471 0.573644 0.526509 0.627554 0.573490 0.526579 0.627554 0.573490 0.526578 0.627472 0.573643 0.526510 
					</float_array>
					<technique_common>
						<accessor count="56" offset="0" source="#meshId0-bitangents-array" stride="3">
							<param name="X" type="float" />
							<param name="Y" type="float" />
							<param name="Z" type="float" />
						</accessor>
					</technique_common>
				</source>
				<source id="meshId0-tex0" name="meshId0-tex0">
					<float_array id="meshId0-tex0-array" count="112"> 
						0.000732 0.431683 0.993242 0.431683 0.993242 0.861665 0.000733 0.861666 0.002780 0.878703 0.432282 0.878703 0.434329 0.881257 0.000733 0.881257 0.000732 0.875183 0.997877 0.875183 0.995826 0.877735 0.002783 0.877735 0.565198 0.883221 0.999268 0.883226 0.997217 0.885779 0.567248 0.885773 0.000733 0.867148 0.999219 0.867148 0.997166 0.869697 0.002786 0.869697 0.993244 0.000732 0.993246 0.430713 0.000733 0.430714 0.000732 0.000732 0.000733 0.881257 0.434329 0.881257 0.434329 0.883231 0.000732 0.883230 0.000733 0.867148 0.000732 0.865191 0.999218 0.865184 0.999219 0.867148 0.997877 0.875183 0.000732 0.875183 0.000732 0.873218 0.997877 0.873218 0.565198 0.883221 0.565198 0.881255 0.999268 0.881256 0.999268 0.883226 0.000732 0.883230 0.434329 0.883231 0.432281 0.885784 0.002779 0.885783 0.002785 0.862643 0.997165 0.862633 0.999218 0.865184 0.000732 0.865191 0.002784 0.870666 0.995827 0.870666 0.997877 0.873218 0.000732 0.873218 0.567248 0.878703 0.997218 0.878703 0.999268 0.881256 0.565198 0.881255 
					</float_array>
					<technique_common>
						<accessor count="56" offset="0" source="#meshId0-tex0-array" stride="2">
							<param name="S" type="float" />
							<param name="T" type="float" />
						</accessor>
					</technique_common>
				</source>
				<vertices id="meshId0-vertices">
					<input semantic="POSITION" source="#meshId0-positions" />
				</vertices>
				<polylist count="28" material="defaultMaterial">
					<input offset="0" semantic="VERTEX" source="#meshId0-vertices" />
					<input offset="0" semantic="NORMAL" source="#meshId0-normals" />
					<input offset="0" semantic="TANGENT" source="#meshId0-tangents" />
					<input offset="0" semantic="BINORMAL" source="#meshId0-bitangents" />
					<input offset="0" semantic="TEXCOORD" source="#meshId0-tex0" set="0" />
					<vcount>
						3 3 3 3 3 3 3 3 3 3 3 3 3 3 3 3 3 3 3 3 3 3 3 3 3 3 3 3 
					</vcount>
					<p>
						3 0 1 1 2 3 7 4 5 5 6 7 11 8 9 9 10 11 15 12 13 13 14 15 19 16 17 17 18 19 23 20 21 21 22 23 27 24 25 25 26 27 31 28 29 29 30 31 35 32 33 33 34 35 39 36 37 37 38 39 43 40 41 41 42 43 47 44 45 45 46 47 51 48 49 49 50 51 55 52 53 53 54 55 
					</p>
				</polylist>
			</mesh>
		</geometry>
	</library_geometries>
	<library_visual_scenes>
		<visual_scene id="RootNode" name="RootNode">
			<node id="Rug" name="Rug">
				<matrix>1.000000 0.000000 0.000000 0.000000 0.000000 1.000000 0.000000 0.000000 0.000000 0.000000 1.000000 0.000000 0.000000 0.000000 0.000000 1.000000</matrix>
				<instance_geometry url="#meshId0">
					<bind_material>
						<technique_common>
							<instance_material symbol="defaultMaterial" target="#RugBaseMaterial" />
						</technique_common>
					</bind_material>
				</instance_geometry>
			</node>
		</visual_scene>
	</library_visual_scenes>
	<scene>
		<instance_visual_scene url="#RootNode" />
	</scene>
</COLLADA>
